<?xml version="1.0" standalone="no"?>
<!DOCTYPE svg PUBLIC "-//W3C//DTD SVG 20010904//EN"
 "http://www.w3.org/TR/2001/REC-SVG-20010904/DTD/svg10.dtd">
<svg version="1.0" xmlns="http://www.w3.org/2000/svg"
 width="1902.000000pt" height="951.000000pt" viewBox="0 0 1902.000000 951.000000"
 preserveAspectRatio="xMidYMid meet">

<g transform="translate(0.000000,951.000000) scale(0.100000,-0.100000)"
fill="#000000" stroke="none">
<path d="M0 4755 l0 -4755 9510 0 9510 0 0 1775 c0 1686 -1 1776 -17 1773 -11
-2 -18 3 -18 12 0 9 7 14 18 12 16 -3 17 116 17 2368 0 2196 -1 2371 -16 2368
-10 -2 -19 3 -21 10 -3 7 4 12 16 12 l21 0 0 590 0 590 -9510 0 -9510 0 0
-4755z m12292 4593 c-7 -7 -12 -8 -12 -2 0 14 12 26 19 19 2 -3 -1 -11 -7 -17z
m-11324 -150 c15 -15 15 -53 0 -81 -6 -12 10 -1 37 25 56 56 81 66 103 44 15
-14 14 -20 -6 -62 l-23 -46 63 56 c66 59 102 70 113 36 5 -15 -5 -33 -37 -69
-50 -56 -88 -127 -88 -165 l0 -27 31 18 c17 10 36 25 44 33 71 82 94 100 124
100 41 0 61 -36 42 -76 -18 -41 -6 -40 22 2 50 72 123 97 145 49 8 -17 8 -33
2 -51 -14 -35 3 -27 32 15 30 45 54 59 69 44 10 -10 8 -17 -7 -35 -10 -12 1
-6 25 15 73 61 114 41 61 -30 -36 -47 -38 -60 -5 -39 44 29 50 17 10 -24 -59
-60 -112 -50 -79 16 12 26 10 25 -19 -9 -33 -38 -67 -49 -67 -22 0 20 -15 19
-65 -6 -49 -24 -87 -20 -101 10 -9 20 -10 20 -57 -4 -58 -30 -78 -31 -102 -5
-17 19 -18 19 -61 -10 -74 -52 -121 -34 -111 40 3 23 17 57 32 78 15 20 -9 -1
-52 -47 -58 -62 -84 -83 -96 -78 -30 11 -19 54 29 119 53 72 78 118 66 118
-11 0 -81 -89 -141 -177 -45 -68 -76 -82 -87 -39 -4 17 6 39 39 87 99 143 101
172 10 118 -79 -46 -93 -48 -93 -13 0 27 53 89 69 80 5 -3 24 1 42 9 42 18 71
19 87 3z m1152 -9 c9 -16 7 -36 -10 -92 -12 -40 -31 -89 -41 -109 -25 -49 -6
-49 25 0 29 47 66 72 105 72 25 0 30 -5 36 -30 4 -16 4 -39 0 -50 -3 -11 -2
-20 4 -20 5 0 13 9 16 20 13 41 56 80 87 80 l30 0 -18 -27 c-9 -16 -26 -34
-36 -41 -10 -7 -18 -21 -18 -30 0 -10 23 6 64 47 45 45 69 62 81 57 14 -5 13
-13 -15 -62 -36 -62 -33 -78 8 -47 20 15 26 27 24 46 -4 33 43 86 61 68 6 -6
26 -11 44 -11 27 0 33 -4 33 -21 0 -12 -11 -34 -25 -51 -38 -45 -31 -63 12
-33 12 8 31 31 43 49 25 41 59 56 74 33 8 -13 13 -12 37 5 54 40 79 0 34 -54
-29 -34 -34 -57 -8 -37 10 8 41 38 68 67 43 44 56 52 88 52 33 0 37 -3 37 -25
0 -20 -11 -33 -50 -57 -27 -17 -50 -35 -50 -39 0 -36 74 1 133 68 38 42 69 54
83 32 3 -6 -11 -28 -32 -50 -21 -21 -35 -41 -31 -45 3 -3 31 19 62 50 31 31
63 56 71 56 18 0 18 -29 1 -55 -8 -11 -22 -33 -33 -50 l-19 -30 31 22 c17 12
34 20 37 17 8 -8 -132 -178 -149 -182 -26 -6 -26 26 0 77 l26 51 -25 -12 c-27
-12 -55 2 -55 28 0 9 -11 6 -36 -11 -48 -33 -89 -33 -110 0 l-16 25 -30 -25
c-54 -46 -94 -25 -63 34 22 43 13 39 -20 -9 -30 -44 -60 -52 -70 -19 -7 20 -7
20 -35 -6 -55 -52 -101 -14 -65 54 8 17 12 31 9 31 -4 0 -35 -27 -70 -60 -66
-63 -99 -75 -112 -39 -7 19 -9 19 -21 5 -19 -22 -47 -20 -65 5 -16 23 -46 20
-78 -8 -30 -27 -75 -10 -94 35 -1 1 -13 -3 -28 -9 -14 -7 -39 -33 -55 -59 -42
-68 -90 -120 -112 -120 -46 0 -3 94 65 141 23 16 44 43 61 81 32 71 65 166 65
186 0 22 -57 -34 -80 -78 -29 -57 -33 -78 -16 -82 13 -2 11 -9 -10 -35 -26
-33 -59 -43 -66 -21 -8 23 12 113 35 158 45 87 150 140 177 89z m-1836 -30
c11 -33 -10 -78 -69 -146 -25 -28 -45 -55 -45 -59 0 -12 47 35 122 124 68 79
100 99 111 68 3 -8 -10 -41 -30 -73 -41 -68 -73 -129 -73 -140 0 -4 16 9 36
28 40 38 94 126 88 143 -2 6 5 22 16 36 17 22 21 23 34 10 41 -41 -106 -280
-173 -280 -30 0 -54 35 -49 73 l4 34 -48 -49 c-65 -67 -108 -65 -108 6 0 13
26 53 65 97 60 69 77 99 56 99 -4 0 -41 -14 -80 -32 -39 -17 -74 -28 -77 -25
-3 3 -3 20 1 37 11 50 75 80 165 77 38 -2 46 -6 54 -28z m5714 14 c-2 -10 -10
-18 -18 -18 -8 0 -16 8 -18 18 -2 12 3 17 18 17 15 0 20 -5 18 -17z m8460 0
c5 -17 -26 -29 -40 -15 -6 6 -7 15 -3 22 9 14 37 9 43 -7z m-1108 -17 c0 -3
-4 -8 -10 -11 -5 -3 -10 -1 -10 4 0 6 5 11 10 11 6 0 10 -2 10 -4z m1610 -106
c0 -39 1 -40 35 -40 34 0 35 1 35 40 0 33 3 40 20 40 19 0 20 -7 20 -90 0 -83
-1 -90 -20 -90 -17 0 -20 7 -20 40 0 39 -1 40 -35 40 -34 0 -35 -1 -35 -40 0
-33 -3 -40 -20 -40 -19 0 -20 7 -20 90 0 83 1 90 20 90 17 0 20 -7 20 -40z
m284 19 c22 -17 26 -28 26 -69 0 -41 -4 -52 -26 -69 -63 -50 -149 -10 -149 69
0 79 86 119 149 69z m132 -41 l18 -62 20 62 c17 52 23 62 43 62 22 0 23 -3 23
-90 0 -83 -1 -90 -20 -90 -17 0 -20 7 -21 48 l-1 47 -15 -42 c-20 -59 -45 -57
-65 5 l-16 47 -1 -52 c-1 -46 -4 -53 -21 -53 -19 0 -20 7 -20 90 l0 90 28 0
c27 0 30 -5 48 -62z m254 52 c0 -5 -16 -10 -35 -10 -32 0 -35 -2 -35 -30 0
-27 3 -30 30 -30 17 0 30 -4 30 -10 0 -5 -13 -10 -30 -10 -27 0 -30 -3 -30
-30 0 -28 2 -30 40 -30 22 0 40 -4 40 -10 0 -6 -27 -10 -60 -10 l-60 0 0 90 0
90 55 0 c30 0 55 -4 55 -10z m500 0 c0 -5 -13 -10 -30 -10 l-30 0 0 -80 c0
-73 -2 -80 -20 -80 -18 0 -20 7 -20 80 l0 80 -35 0 c-19 0 -35 5 -35 10 0 6
35 10 85 10 50 0 85 -4 85 -10z m128 -2 c16 -16 15 -49 -3 -74 -13 -19 -12
-24 11 -55 l25 -34 -22 -3 c-12 -2 -26 3 -30 10 -5 8 -17 26 -28 39 l-20 24
-1 -37 c0 -31 -4 -38 -20 -38 -19 0 -20 7 -20 90 l0 90 48 0 c26 0 53 -5 60
-12z m162 2 c0 -5 -16 -10 -35 -10 -32 0 -35 -2 -35 -30 0 -27 3 -30 30 -30
17 0 30 -4 30 -10 0 -5 -13 -10 -30 -10 -27 0 -30 -3 -30 -30 0 -28 2 -30 40
-30 22 0 40 -4 40 -10 0 -6 -27 -10 -60 -10 l-60 0 0 90 0 90 55 0 c30 0 55
-4 55 -10z m112 -48 l38 -57 0 58 c0 44 3 57 15 57 12 0 15 -17 15 -90 0 -80
-2 -90 -18 -90 -11 0 -31 22 -52 57 l-35 58 -3 -58 c-2 -42 -7 -57 -17 -57
-12 0 -15 18 -15 90 0 79 2 90 18 90 10 0 33 -24 54 -58z m237 48 c26 -13 45
-64 36 -97 -13 -53 -42 -73 -107 -73 l-58 0 0 90 0 90 56 0 c30 0 63 -4 73
-10z m101 -80 c0 -83 -1 -90 -20 -90 -19 0 -20 7 -20 90 0 83 1 90 20 90 19 0
20 -7 20 -90z m115 38 l35 -53 0 53 c0 45 3 52 20 52 19 0 20 -7 20 -90 0 -82
-2 -90 -19 -90 -12 0 -31 19 -52 52 l-34 53 -3 -53 c-3 -44 -6 -52 -23 -52
-17 0 -19 7 -19 90 0 83 2 90 20 90 12 0 32 -19 55 -52z m253 34 c3 -9 -6 -11
-35 -6 -50 8 -73 -13 -73 -63 0 -40 23 -73 52 -73 13 0 18 8 18 30 0 24 4 30
21 30 17 0 20 -5 17 -37 l-3 -38 -50 -3 c-44 -2 -54 1 -75 23 -17 18 -25 38
-25 65 0 27 8 47 25 65 21 22 31 25 74 23 29 -2 51 -8 54 -16z m446 9 c3 -4
19 -45 35 -90 29 -78 30 -81 11 -81 -13 0 -24 10 -30 25 -8 20 -16 25 -45 25
-29 0 -36 -4 -41 -25 -6 -23 -34 -36 -34 -16 0 6 14 46 32 90 23 59 36 81 49
81 10 0 20 -4 23 -9z m196 -12 c9 -16 8 -25 -5 -39 -16 -18 -16 -20 -1 -35 19
-19 21 -56 4 -73 -7 -7 -34 -12 -60 -12 l-48 0 0 90 0 90 50 0 c40 0 51 -4 60
-21z m185 -4 c19 -18 25 -35 25 -65 0 -56 -34 -90 -90 -90 -56 0 -90 34 -90
90 0 56 34 90 90 90 30 0 47 -6 65 -25z m95 -49 c0 -56 4 -75 15 -80 35 -13
45 4 45 80 0 67 2 74 20 74 18 0 20 -7 20 -68 0 -85 -16 -112 -67 -112 -59 0
-73 21 -73 107 0 66 2 73 20 73 18 0 20 -7 20 -74z m280 64 c0 -5 -13 -10 -30
-10 l-30 0 0 -80 c0 -73 -2 -80 -20 -80 -18 0 -20 7 -20 80 l0 80 -35 0 c-19
0 -35 5 -35 10 0 6 35 10 85 10 50 0 85 -4 85 -10z m130 -53 c0 -74 18 -109
47 -91 14 9 19 26 21 83 2 54 6 71 17 71 12 0 15 -16 15 -74 0 -85 -12 -106
-64 -106 -57 0 -70 19 -74 104 -4 72 -3 76 17 76 19 0 21 -6 21 -63z m238 45
c3 -8 -6 -12 -29 -10 -47 4 -47 -17 0 -47 45 -28 54 -61 25 -90 -19 -19 -95
-17 -101 2 -3 9 7 12 34 10 50 -3 52 23 3 55 -40 27 -49 58 -24 82 19 20 85
18 92 -2z m-18205 -16 c8 -21 -20 -54 -64 -76 -39 -20 -48 -33 -29 -45 17 -10
90 37 111 72 24 38 59 53 73 30 8 -13 13 -12 37 5 54 40 79 0 34 -54 -32 -38
-32 -53 0 -32 41 27 43 5 3 -32 -61 -55 -107 -39 -73 25 22 43 13 39 -20 -9
-30 -43 -60 -52 -70 -21 -6 19 -7 19 -42 -5 -47 -32 -88 -31 -109 1 -28 43 2
105 71 143 28 16 72 15 78 -2z m9467 -126 c0 -5 -4 -10 -10 -10 -5 0 -10 5
-10 10 0 6 5 10 10 10 6 0 10 -4 10 -10z m-6630 -160 c0 -5 -4 -10 -10 -10 -5
0 -10 5 -10 10 0 6 5 10 10 10 6 0 10 -4 10 -10z m8450 0 c0 -5 -4 -10 -10
-10 -5 0 -10 5 -10 10 0 6 5 10 10 10 6 0 10 -4 10 -10z m-9805 -90 c3 -5 -3
-10 -15 -10 -12 0 -18 5 -15 10 3 6 10 10 15 10 5 0 12 -4 15 -10z m8450 0 c3
-5 -1 -10 -10 -10 -9 0 -13 5 -10 10 3 6 8 10 10 10 2 0 7 -4 10 -10z m8460 0
c3 -5 -3 -10 -15 -10 -12 0 -18 5 -15 10 3 6 10 10 15 10 5 0 12 -4 15 -10z
m-14084 -65 c0 -5 -9 -11 -21 -13 -20 -3 -27 8 -13 22 10 9 34 3 34 -9z m8457
-2 c2 -8 -5 -13 -17 -13 -21 0 -35 13 -24 24 10 10 36 3 41 -11z m2383 -240
c-12 -20 -14 -14 -5 12 4 9 9 14 11 11 3 -2 0 -13 -6 -23z m-13641 -52 c0 -11
-26 -22 -34 -14 -12 12 -5 23 14 23 11 0 20 -4 20 -9z m8448 -2 c-2 -6 -8 -10
-13 -10 -5 0 -11 4 -13 10 -2 6 4 11 13 11 9 0 15 -5 13 -11z m-5921 -15 c-3
-3 -12 -4 -19 -1 -8 3 -5 6 6 6 11 1 17 -2 13 -5z m8456 -1 c-7 -2 -19 -2 -25
0 -7 3 -2 5 12 5 14 0 19 -2 13 -5z m-9983 -63 c0 -5 -2 -10 -4 -10 -3 0 -8 5
-11 10 -3 6 -1 10 4 10 6 0 11 -4 11 -10z m8460 6 c0 -3 -4 -8 -10 -11 -5 -3
-10 -1 -10 4 0 6 5 11 10 11 6 0 10 -2 10 -4z m-7809 -109 c-13 -13 -26 -3
-16 12 3 6 11 8 17 5 6 -4 6 -10 -1 -17z m8459 8 c0 -8 -7 -15 -15 -15 -16 0
-20 12 -8 23 11 12 23 8 23 -8z m-4290 -34 c0 -12 -20 -25 -27 -18 -7 7 6 27
18 27 5 0 9 -4 9 -9z m8442 -13 c-7 -7 -12 -8 -12 -2 0 14 12 26 19 19 2 -3
-1 -11 -7 -17z m-4872 -109 c0 -18 -8 -22 -68 -34 -25 -5 -33 -3 -38 10 -8 20
7 36 48 50 37 13 58 3 58 -26z m-2370 -164 l0 -125 -24 0 c-13 0 -26 6 -29 13
-4 10 -7 10 -18 0 -21 -21 -66 -16 -83 9 -24 33 -21 103 5 129 17 17 29 20 60
16 l39 -5 0 44 c0 40 2 44 25 44 l25 0 0 -125z m100 100 c0 -20 -5 -25 -25
-25 -20 0 -25 5 -25 25 0 20 5 25 25 25 20 0 25 -5 25 -25z m1320 -52 l0 -78
27 38 c14 20 34 37 45 37 23 0 23 0 -7 -40 l-24 -33 28 -36 c45 -58 45 -61 12
-61 -23 0 -34 8 -53 38 l-23 37 -3 -37 c-3 -33 -7 -38 -28 -38 l-24 0 0 125 0
125 25 0 c25 0 25 -2 25 -77z m1010 62 c0 -9 -81 -41 -137 -54 -61 -15 -113
-7 -113 17 0 12 3 13 12 4 25 -25 140 -7 236 37 1 0 2 -1 2 -4z m-3160 -20 c0
-11 -12 -15 -45 -15 l-45 0 0 -100 0 -100 -25 0 -25 0 0 100 0 100 -40 0 c-29
0 -40 4 -40 15 0 12 19 15 110 15 91 0 110 -3 110 -15z m1538 -14 c3 -20 1
-22 -15 -16 -68 30 -99 -11 -34 -45 105 -53 81 -146 -36 -138 -41 3 -48 6 -51
26 -3 20 -1 21 24 11 36 -13 74 -4 74 19 0 9 -21 30 -48 47 -38 24 -48 36 -50
62 -4 43 27 65 88 61 39 -3 45 -6 48 -27z m-6218 -1 c0 -5 -4 -10 -10 -10 -5
0 -10 5 -10 10 0 6 5 10 10 10 6 0 10 -4 10 -10z m6320 -10 c0 -13 7 -20 20
-20 11 0 20 -7 20 -15 0 -8 -9 -15 -20 -15 -17 0 -20 -7 -20 -39 0 -49 8 -71
26 -71 8 0 14 -7 14 -15 0 -20 -54 -20 -74 1 -11 10 -16 34 -16 70 0 30 -4 54
-10 54 -5 0 -10 7 -10 15 0 8 5 15 10 15 6 0 10 6 10 14 0 13 13 20 43 25 4 0
7 -8 7 -19z m2130 10 c0 -5 -4 -10 -10 -10 -5 0 -10 5 -10 10 0 6 5 10 10 10
6 0 10 -4 10 -10z m-3690 -42 c0 -9 3 -9 12 0 18 18 48 15 48 -6 0 -10 -12
-22 -30 -29 -28 -11 -30 -14 -30 -67 0 -53 -1 -56 -25 -56 -25 0 -25 1 -25 85
0 84 0 85 25 85 14 0 25 -5 25 -12z m213 -5 c8 -10 19 -30 22 -45 l7 -28 -56
0 c-59 0 -67 -8 -39 -35 12 -13 26 -15 55 -11 29 5 38 3 38 -8 0 -36 -100 -37
-136 -1 -21 21 -24 33 -23 79 2 60 4 62 80 65 23 1 42 -5 52 -16z m117 0 c0
-15 1 -15 18 0 22 20 63 22 80 5 7 -7 12 -42 12 -85 0 -71 -1 -73 -25 -73 -23
0 -24 4 -27 62 -2 34 -8 63 -14 65 -24 8 -44 -28 -44 -78 0 -46 -2 -49 -25
-49 -25 0 -25 1 -25 85 0 84 0 85 25 85 17 0 25 -6 25 -17z m420 -68 c0 -84 0
-85 -25 -85 -25 0 -25 1 -25 85 0 84 0 85 25 85 25 0 25 -1 25 -85z m110 75
c0 -7 6 -7 19 0 58 30 91 -5 91 -97 l0 -63 -30 0 -30 0 0 65 c0 47 -4 65 -13
65 -25 0 -37 -25 -37 -77 0 -50 -1 -53 -25 -53 -25 0 -25 1 -25 85 0 84 0 85
25 85 14 0 25 -5 25 -10z m310 -82 c0 -82 -2 -91 -25 -114 -21 -21 -33 -25
-72 -22 -37 2 -49 7 -51 21 -3 16 1 18 26 12 35 -7 72 8 72 30 0 12 -5 12 -24
4 -56 -26 -106 24 -92 93 11 54 30 67 102 66 l64 0 0 -90z m610 72 c27 -27 35
-65 20 -101 -36 -85 -170 -57 -170 36 0 51 36 85 90 85 26 0 47 -7 60 -20z
m198 -3 c3 -16 -1 -17 -31 -12 -58 11 -85 -34 -51 -84 14 -19 22 -22 51 -16
30 5 34 4 31 -12 -2 -14 -14 -19 -51 -21 -60 -4 -97 27 -97 83 0 56 37 87 97
83 37 -2 49 -7 51 -21z m362 8 c0 -10 -10 -15 -34 -15 -51 0 -52 -15 -4 -42
49 -26 59 -55 29 -82 -26 -23 -114 -19 -119 6 -3 14 4 17 39 15 53 -3 62 17
14 33 -48 16 -66 52 -40 80 23 25 115 29 115 5z m-10680 -10 c0 -9 -6 -12 -15
-9 -8 4 -15 10 -15 15 0 5 7 9 15 9 8 0 15 -7 15 -15z m16910 0 c0 -9 -6 -12
-15 -9 -8 4 -15 10 -15 15 0 5 7 9 15 9 8 0 15 -7 15 -15z m-9240 -18 c0 -8
-7 -14 -15 -14 -16 0 -19 9 -8 20 11 11 23 8 23 -6z m8455 4 c7 -12 -12 -24
-25 -16 -11 7 -4 25 10 25 5 0 11 -4 15 -9z m-14534 -94 c-8 -8 -11 -7 -11 4
0 20 13 34 18 19 3 -7 -1 -17 -7 -23z m16910 0 c-8 -8 -11 -7 -11 4 0 20 13
34 18 19 3 -7 -1 -17 -7 -23z m-2604 -503 c-3 -3 -12 -4 -19 -1 -8 3 -5 6 6 6
11 1 17 -2 13 -5z m-14367 -54 c0 -5 -2 -10 -4 -10 -3 0 -8 5 -11 10 -3 6 -1
10 4 10 6 0 11 -4 11 -10z m14857 4 c-3 -3 -12 -4 -19 -1 -8 3 -5 6 6 6 11 1
17 -2 13 -5z m2053 -4 c0 -5 -2 -10 -4 -10 -3 0 -8 5 -11 10 -3 6 -1 10 4 10
6 0 11 -4 11 -10z m-14935 -40 c3 -5 1 -10 -4 -10 -6 0 -11 5 -11 10 0 6 2 10
4 10 3 0 8 -4 11 -10z m3220 -65 l11 -40 10 40 c14 57 39 58 55 3 l13 -43 9
43 c6 25 16 42 24 42 9 0 12 -7 9 -17 -3 -10 -10 -39 -17 -65 -15 -61 -34 -62
-52 -1 l-14 46 -13 -46 c-16 -60 -36 -60 -51 -2 -6 25 -15 47 -18 50 -4 2 -13
-18 -20 -45 -8 -32 -18 -50 -28 -50 -8 0 -12 3 -10 8 3 4 12 33 21 65 14 50
20 58 38 55 15 -2 25 -15 33 -43z m255 -20 c0 -37 -4 -65 -10 -65 -6 0 -10 28
-10 65 0 37 4 65 10 65 6 0 10 -28 10 -65z m40 0 c0 -37 -4 -65 -10 -65 -6 0
-10 28 -10 65 0 37 4 65 10 65 6 0 10 -28 10 -65z m118 43 c2 -11 -3 -18 -12
-18 -9 0 -16 5 -16 11 0 6 -10 9 -22 7 -34 -4 -28 -19 12 -32 30 -9 35 -16 35
-41 0 -28 -3 -30 -42 -33 -34 -3 -44 1 -53 17 -8 17 -8 21 4 21 8 0 18 -4 21
-10 8 -13 42 -13 50 0 4 6 -11 18 -34 27 -31 12 -41 22 -41 38 0 31 9 36 55
33 29 -2 41 -8 43 -20z m42 8 c0 -8 6 -17 13 -20 10 -5 10 -7 0 -12 -15 -7
-18 -64 -3 -64 6 0 10 -4 10 -10 0 -5 -9 -10 -19 -10 -15 0 -20 9 -23 48 -2
26 -2 55 0 65 5 20 22 23 22 3z m310 0 c0 -8 6 -17 13 -20 10 -5 10 -7 0 -12
-15 -7 -18 -64 -3 -64 6 0 10 -4 10 -10 0 -5 -9 -10 -19 -10 -15 0 -20 9 -23
48 -2 26 -2 55 0 65 5 20 22 23 22 3z m125 -51 l0 -60 -47 -3 -48 -3 0 66 0
66 48 -3 47 -3 0 -60z m145 51 c0 -8 6 -17 13 -20 10 -5 10 -7 0 -12 -7 -3
-13 -18 -13 -33 0 -24 4 -26 40 -27 22 -1 37 2 34 7 -3 5 -11 9 -18 9 -20 0
-37 25 -30 44 8 22 74 23 74 1 0 -11 -7 -14 -27 -10 -26 5 -26 4 5 -10 17 -8
32 -21 32 -28 -1 -28 -17 -36 -72 -36 l-56 1 -4 47 c-2 25 -2 54 0 64 5 20 22
23 22 3z m1400 3 c0 -25 -32 -119 -41 -119 -13 0 -11 14 7 76 8 30 20 54 25
54 5 0 9 -5 9 -11z m108 -11 c2 -11 -3 -18 -12 -18 -9 0 -16 5 -16 11 0 6 -10
9 -22 7 -34 -4 -28 -19 12 -32 30 -9 35 -16 35 -41 0 -28 -3 -30 -42 -33 -34
-3 -44 1 -53 17 -8 17 -8 21 4 21 8 0 18 -4 21 -10 8 -13 42 -13 50 0 4 6 -11
18 -34 27 -31 12 -41 22 -41 38 0 31 9 36 55 33 29 -2 41 -8 43 -20z m42 8 c0
-8 6 -17 13 -20 10 -5 10 -7 0 -12 -15 -7 -18 -64 -3 -64 6 0 10 -4 10 -10 0
-5 -9 -10 -19 -10 -15 0 -20 9 -23 48 -2 26 -2 55 0 65 5 20 22 23 22 3z m240
-13 c0 -21 3 -24 12 -15 7 7 21 12 32 12 18 0 18 -1 2 -19 -25 -28 -8 -53 38
-57 21 -2 34 1 31 6 -4 6 -12 10 -19 10 -20 0 -37 25 -30 44 8 22 74 23 74 1
0 -11 -7 -14 -27 -10 -26 5 -26 4 5 -10 58 -27 38 -66 -34 -64 -37 1 -53 7
-66 23 l-18 21 0 -22 c0 -13 -4 -23 -10 -23 -6 0 -10 28 -10 65 0 37 4 65 10
65 6 0 10 -12 10 -27z m1670 16 c0 -25 -32 -119 -41 -119 -13 0 -11 14 7 76 8
30 20 54 25 54 5 0 9 -5 9 -11z m40 -54 c0 -51 -3 -65 -15 -65 -12 0 -15 14
-15 65 0 51 3 65 15 65 12 0 15 -14 15 -65z m420 51 c0 -8 6 -17 13 -20 10 -5
10 -7 0 -12 -15 -7 -18 -64 -3 -64 6 0 10 -4 10 -10 0 -5 -9 -10 -19 -10 -15
0 -20 9 -23 48 -2 26 -2 55 0 65 5 20 22 23 22 3z m50 4 c0 -5 -4 -10 -10 -10
-5 0 -10 5 -10 10 0 6 5 10 10 10 6 0 10 -4 10 -10z m-11250 -25 c-7 -9 -15
-13 -17 -11 -7 7 7 26 19 26 6 0 6 -6 -2 -15z m16910 0 c-7 -8 -17 -15 -22
-15 -6 0 -5 7 2 15 7 8 17 15 22 15 6 0 5 -7 -2 -15z m-10750 -4 c0 -5 -7 -11
-15 -15 -9 -3 -15 -19 -15 -41 0 -19 -4 -35 -10 -35 -5 0 -10 23 -10 50 0 47
2 50 25 50 14 0 25 -4 25 -9z m300 -43 l6 -48 -43 0 c-30 0 -45 5 -49 15 -9
21 14 45 43 45 15 0 22 4 17 11 -3 6 -17 8 -30 5 -13 -4 -24 -3 -24 2 0 16 14
23 45 20 28 -3 30 -6 35 -50z m410 34 c9 -16 11 -16 20 1 15 24 66 23 80 -2
15 -29 13 -31 -26 -31 -24 0 -34 -4 -31 -12 2 -8 18 -12 37 -10 28 2 31 0 20
-13 -21 -25 -69 -19 -82 10 -9 20 -19 25 -45 25 -24 0 -33 -4 -30 -12 2 -8 18
-12 37 -10 28 2 31 0 20 -13 -7 -8 -25 -15 -41 -15 -34 0 -54 30 -45 66 6 23
5 24 -14 14 -14 -8 -20 -21 -20 -45 0 -19 -4 -35 -10 -35 -5 0 -10 22 -10 49
l0 50 65 0 c50 0 67 -4 75 -17z m370 -1 c15 -29 13 -31 -26 -31 -24 0 -34 -4
-31 -12 2 -8 18 -12 37 -10 28 2 31 0 20 -13 -7 -8 -25 -15 -41 -15 -38 0 -58
37 -41 75 15 32 66 35 82 6z m1383 2 c-16 -11 -23 -26 -23 -49 0 -19 -4 -34
-10 -34 -5 0 -10 23 -10 50 0 50 0 50 33 49 32 0 32 0 10 -16z m316 0 c9 -17
11 -17 23 0 16 21 69 20 76 -1 3 -9 -5 -12 -24 -10 -21 2 -29 -2 -32 -16 -6
-27 13 -42 33 -26 18 15 30 7 22 -15 -9 -21 -63 -20 -77 3 -10 16 -10 16 -20
0 -13 -21 -60 -24 -78 -6 -7 7 -12 24 -12 38 0 14 5 31 12 38 18 18 66 15 77
-5z m1744 0 c-16 -11 -23 -26 -23 -49 0 -19 -4 -34 -10 -34 -5 0 -10 23 -10
50 0 50 0 50 33 49 32 0 32 0 10 -16z m195 -35 c4 -56 -15 -66 -20 -10 -2 25
-8 37 -18 37 -10 0 -16 -12 -18 -37 -5 -56 -22 -46 -22 13 l0 50 38 -3 c37 -3
37 -3 40 -50z m49 20 l10 -33 7 33 c4 17 14 32 22 32 17 0 17 3 -2 -53 -9 -26
-22 -47 -29 -47 -7 0 -20 21 -29 47 -19 56 -19 53 -2 53 7 0 17 -15 23 -32z
m142 15 c9 -17 10 -17 16 0 9 22 75 24 75 2 0 -11 -7 -14 -27 -10 -26 5 -26 4
5 -10 33 -15 36 -22 26 -49 -7 -19 -64 -22 -81 -5 -8 8 -13 8 -17 0 -4 -6 -21
-11 -37 -11 -38 0 -58 37 -41 75 14 30 65 35 81 8z m181 -33 c0 -27 -4 -50
-10 -50 -5 0 -10 23 -10 50 0 28 5 50 10 50 6 0 10 -22 10 -50z m98 -2 c4 -56
-15 -66 -20 -10 -2 25 -8 37 -18 37 -10 0 -16 -12 -18 -37 -5 -56 -22 -46 -22
13 l0 50 38 -3 c37 -3 37 -3 40 -50z m100 -15 l-3 -68 -36 -3 c-26 -2 -38 1
-43 13 -5 14 -1 16 23 10 17 -3 32 -2 36 4 4 7 -3 11 -17 11 -31 0 -48 18 -48
50 0 35 17 50 57 50 l34 0 -3 -67z m3912 -29 c0 -8 -5 -12 -10 -9 -6 4 -8 11
-5 16 9 14 15 11 15 -7z m-14990 -85 c0 -6 -4 -7 -10 -4 -5 3 -10 11 -10 16 0
6 5 7 10 4 6 -3 10 -11 10 -16z m16910 0 c0 -6 -4 -7 -10 -4 -5 3 -10 11 -10
16 0 6 5 7 10 4 6 -3 10 -11 10 -16z m-1070 -11 c0 -16 -3 -19 -11 -11 -6 6
-8 16 -5 22 11 17 16 13 16 -11z m117 -11 c-15 -23 -87 -43 -114 -32 -25 9 14
34 53 35 17 0 37 7 44 15 19 23 34 7 17 -18z m47 -46 c-5 -4 -34 -16 -65 -26
-62 -20 -129 -15 -129 10 0 11 6 12 26 5 44 -17 99 -12 135 13 19 13 36 19 38
14 2 -5 -1 -12 -5 -16z m-14374 -100 c0 -23 -25 -34 -39 -17 -7 9 -7 16 1 24
18 18 38 14 38 -7z m8448 -13 c-3 -7 -11 -13 -18 -13 -7 0 -15 6 -17 13 -3 7
4 12 17 12 13 0 20 -5 18 -12z m5802 8 c0 -11 -19 -15 -25 -6 -3 5 1 10 9 10
9 0 16 -2 16 -4z m-16475 -46 c3 -5 -3 -10 -15 -10 -12 0 -18 5 -15 10 3 6 10
10 15 10 5 0 12 -4 15 -10z m8455 0 c0 -5 -7 -10 -15 -10 -8 0 -15 5 -15 10 0
6 7 10 15 10 8 0 15 -4 15 -10z m8450 0 c0 -5 -7 -10 -15 -10 -8 0 -15 5 -15
10 0 6 7 10 15 10 8 0 15 -4 15 -10z m-16750 -150 c0 -5 -2 -10 -4 -10 -3 0
-8 5 -11 10 -3 6 -1 10 4 10 6 0 11 -4 11 -10z m8460 0 c0 -5 -4 -10 -9 -10
-6 0 -13 5 -16 10 -3 6 1 10 9 10 9 0 16 -4 16 -10z m8450 0 c0 -5 -2 -10 -4
-10 -3 0 -8 5 -11 10 -3 6 -1 10 4 10 6 0 11 -4 11 -10z m-4560 -260 l0 -220
-2855 0 c-1645 0 -2855 -4 -2855 -9 0 -14 37 -20 50 -7 10 8 11 7 8 -4 -2 -8
-15 -17 -29 -21 -13 -4 -18 -7 -11 -8 6 -1 12 -8 12 -16 0 -18 -17 -20 -23 -2
-3 9 -9 9 -25 0 -20 -12 -21 -11 -15 17 3 20 1 30 -6 30 -7 0 -9 5 -6 10 4 7
-167 10 -504 10 l-511 0 0 220 0 220 3385 0 3385 0 0 -220z m3703 83 c-7 -2
-19 -2 -25 0 -7 3 -2 5 12 5 14 0 19 -2 13 -5z m-13568 -53 c8 -13 -5 -13 -25
0 -13 8 -13 10 2 10 9 0 20 -4 23 -10z m12222 -12 c-3 -8 -6 -5 -6 6 -1 11 2
17 5 13 3 -3 4 -12 1 -19z m-1052 2 c3 -5 1 -10 -4 -10 -6 0 -11 5 -11 10 0 6
2 10 4 10 3 0 8 -4 11 -10z m-10828 -82 c-3 -8 -6 -5 -6 6 -1 11 2 17 5 13 3
-3 4 -12 1 -19z m12830 -154 c-3 -3 -12 -4 -19 -1 -8 3 -5 6 6 6 11 1 17 -2
13 -5z m-6416 -84 c10 -6 19 -17 19 -25 0 -11 12 -15 40 -15 29 0 40 4 40 15
0 9 9 15 25 15 14 0 42 -7 62 -15 31 -13 331 -15 2494 -15 l2459 0 0 -2400 0
-2400 -454 0 -454 0 -19 58 c-26 76 -46 79 -68 10 -26 -78 -35 -81 -35 -10 0
67 -17 86 -22 25 l-3 -38 -24 38 c-12 20 -27 37 -32 37 -5 0 -9 -27 -9 -60 l0
-60 -722 0 c-562 0 -719 3 -710 12 20 20 15 59 -8 65 -11 3 -20 9 -20 14 0 5
9 9 20 9 11 0 20 5 20 10 0 6 -13 10 -30 10 -23 0 -30 -5 -30 -19 0 -11 -3
-27 -6 -36 -5 -13 -2 -15 20 -9 22 5 26 3 26 -15 0 -23 -25 -29 -33 -8 -2 6
-8 9 -12 5 -4 -4 -2 -14 5 -23 11 -13 7 -15 -29 -15 -47 0 -50 8 -21 65 27 52
26 55 -15 55 -19 0 -35 -4 -35 -10 0 -5 11 -10 25 -10 24 0 25 -1 11 -23 -7
-12 -16 -34 -20 -50 -7 -28 -30 -37 -40 -14 -5 9 -7 9 -12 -1 -3 -6 -14 -12
-24 -12 -16 0 -17 4 -8 28 21 54 -12 111 -47 82 -18 -15 -20 -81 -3 -98 9 -9
-163 -12 -775 -12 -743 0 -787 1 -785 18 3 43 -3 102 -11 102 -8 0 -61 -81
-61 -94 0 -3 11 -6 25 -6 14 0 25 -4 25 -10 0 -5 -16 -10 -35 -10 -27 0 -34 4
-33 18 3 40 -3 102 -9 102 -12 0 -53 -67 -53 -85 0 -8 9 -15 20 -15 11 0 20
-4 20 -10 0 -7 -278 -10 -815 -10 l-815 0 0 60 c0 33 -3 60 -7 60 -10 0 -43
-32 -43 -41 0 -5 7 -6 15 -3 12 5 15 -3 15 -35 l0 -41 -697 0 -698 0 0 57 c0
55 -1 58 -25 58 -32 0 -49 -43 -33 -85 10 -26 9 -30 -7 -30 -10 0 -21 6 -24
13 -5 9 -7 9 -12 0 -3 -7 -15 -13 -27 -13 -16 0 -18 3 -9 12 7 7 12 29 12 49
0 73 -62 78 -68 5 -2 -21 2 -44 9 -52 10 -12 -79 -14 -662 -14 l-674 0 0 57
c0 55 -1 58 -25 58 -32 0 -49 -43 -33 -85 10 -26 9 -30 -7 -30 -10 0 -21 6
-24 13 -5 9 -7 9 -12 0 -3 -7 -15 -13 -27 -13 -16 0 -18 3 -9 12 7 7 12 29 12
49 0 73 -62 78 -68 5 -2 -21 2 -44 9 -52 10 -12 -62 -14 -530 -14 -297 0 -541
2 -541 3 0 2 9 30 20 61 12 36 15 56 8 54 -6 -2 -16 -18 -22 -35 -17 -48 -24
-49 -36 -4 -6 23 -15 41 -20 41 -13 0 -13 -10 5 -60 19 -55 19 -60 -5 -60 -11
0 -20 5 -20 10 0 6 -16 10 -35 10 -24 0 -35 5 -35 15 0 10 10 15 30 15 17 0
30 5 30 10 0 6 -13 10 -30 10 -20 0 -30 5 -30 15 0 10 10 15 30 15 17 0 30 5
30 10 0 6 -18 10 -40 10 l-40 0 0 -60 0 -60 -164 0 c-136 0 -167 3 -180 16
-14 14 -16 244 -16 2384 0 2140 2 2370 16 2384 14 14 178 16 1658 16 1264 0
1645 3 1654 12 9 9 12 9 12 0 0 -10 168 -12 773 -9 712 4 783 6 907 25 106 16
190 20 393 21 161 1 266 -3 278 -9z m-5981 -345 c0 -19 -20 -29 -32 -17 -8 8
-7 16 2 26 14 17 30 12 30 -9z m11692 -157 c-7 -7 -12 -8 -12 -2 0 14 12 26
19 19 2 -3 -1 -11 -7 -17z m-14009 -3 c-3 -9 -8 -14 -10 -11 -3 3 -2 9 2 15 9
16 15 13 8 -4z m16910 0 c-3 -9 -8 -14 -10 -11 -3 3 -2 9 2 15 9 16 15 13 8
-4z m-14455 -247 c-6 -18 -25 -20 -31 -3 -5 10 0 15 14 15 12 0 19 -5 17 -12z
m11342 2 c0 -5 -4 -10 -10 -10 -5 0 -10 5 -10 10 0 6 5 10 10 10 6 0 10 -4 10
-10z m545 -30 c-3 -5 -13 -10 -21 -10 -8 0 -14 5 -14 10 0 6 9 10 21 10 11 0
17 -4 14 -10z m-14045 -20 c0 -5 -4 -10 -10 -10 -5 0 -10 5 -10 10 0 6 5 10
10 10 6 0 10 -4 10 -10z m16905 0 c3 -5 1 -10 -4 -10 -6 0 -11 5 -11 10 0 6 2
10 4 10 3 0 8 -4 11 -10z m-14675 -216 c0 -2 -12 -4 -27 -4 -21 0 -24 3 -14 9
13 8 41 5 41 -5z m-2562 -17 c2 -9 -3 -17 -10 -17 -8 0 -14 9 -14 20 0 24 20
21 24 -3z m16910 0 c2 -9 -3 -17 -10 -17 -8 0 -14 9 -14 20 0 24 20 21 24 -3z
m-1868 -27 c0 -5 -7 -10 -15 -10 -8 0 -15 5 -15 10 0 6 7 10 15 10 8 0 15 -4
15 -10z m-15575 -10 c-3 -5 -11 -10 -16 -10 -6 0 -7 5 -4 10 3 6 11 10 16 10
6 0 7 -4 4 -10z m16905 0 c0 -5 -5 -10 -11 -10 -5 0 -7 5 -4 10 3 6 8 10 11
10 2 0 4 -4 4 -10z m-713 -6 c-3 -3 -12 -4 -19 -1 -8 3 -5 6 6 6 11 1 17 -2
13 -5z m-15120 -79 c-4 -8 -11 -15 -17 -15 -7 0 -7 6 0 21 13 23 26 19 17 -6z
m16911 8 c-2 -9 -8 -18 -15 -20 -7 -3 -9 3 -6 16 6 25 26 28 21 4z m-15468
-823 c0 -5 -4 -10 -10 -10 -5 0 -10 5 -10 10 0 6 5 10 10 10 6 0 10 -4 10 -10z
m-2975 -28 c-38 -21 -98 -42 -104 -37 -2 3 7 9 20 15 13 6 35 17 49 25 14 8
34 15 45 14 16 0 14 -3 -10 -17z m1625 -62 c0 -5 -9 -10 -20 -10 -11 0 -20 5
-20 10 0 6 9 10 20 10 11 0 20 -4 20 -10z m16910 0 c0 -5 -9 -10 -20 -10 -11
0 -20 5 -20 10 0 6 9 10 20 10 11 0 20 -4 20 -10z m-3249 -303 c-10 -9 -11 -8
-5 6 3 10 9 15 12 12 3 -3 0 -11 -7 -18z m-13641 -58 c0 -5 -9 -9 -20 -9 -19
0 -26 11 -14 23 8 8 34 -3 34 -14z m1658 -171 c-6 -18 -28 -21 -28 -4 0 9 7
16 16 16 9 0 14 -5 12 -12z m12612 -38 c0 -5 -4 -10 -10 -10 -5 0 -10 5 -10
10 0 6 5 10 10 10 6 0 10 -4 10 -10z m-12660 -204 c0 -3 -4 -8 -10 -11 -5 -3
-10 -1 -10 4 0 6 5 11 10 11 6 0 10 -2 10 -4z m-3582 -54 c2 -7 -3 -12 -12
-12 -9 0 -16 7 -16 16 0 17 22 14 28 -4z m16912 -3 c0 -5 -7 -9 -15 -9 -8 0
-15 7 -15 15 0 9 6 12 15 9 8 -4 15 -10 15 -15z m-780 -19 c0 -5 -9 -10 -21
-10 -11 0 -17 5 -14 10 3 6 13 10 21 10 8 0 14 -4 14 -10z m-14539 -93 c-8 -8
-11 -7 -11 4 0 20 13 34 18 19 3 -7 -1 -17 -7 -23z m16910 6 c-8 -15 -10 -15
-11 -2 0 17 10 32 18 25 2 -3 -1 -13 -7 -23z m-2604 -509 c-3 -3 -12 -4 -19
-1 -8 3 -5 6 6 6 11 1 17 -2 13 -5z m-14367 -54 c0 -5 -2 -10 -4 -10 -3 0 -8
5 -11 10 -3 6 -1 10 4 10 6 0 11 -4 11 -10z m14857 4 c-3 -3 -12 -4 -19 -1 -8
3 -5 6 6 6 11 1 17 -2 13 -5z m2053 -4 c0 -5 -2 -10 -4 -10 -3 0 -8 5 -11 10
-3 6 -1 10 4 10 6 0 11 -4 11 -10z m-17955 -90 c-3 -5 -11 -10 -16 -10 -6 0
-7 5 -4 10 3 6 11 10 16 10 6 0 7 -4 4 -10z m16910 0 c-3 -5 -11 -10 -16 -10
-6 0 -7 5 -4 10 3 6 11 10 16 10 6 0 7 -4 4 -10z m-1555 -96 c0 -8 -5 -12 -10
-9 -6 4 -8 11 -5 16 9 14 15 11 15 -7z m-14990 -80 c0 -8 -4 -12 -10 -9 -5 3
-10 10 -10 16 0 5 5 9 10 9 6 0 10 -7 10 -16z m16910 0 c0 -8 -4 -12 -10 -9
-5 3 -10 10 -10 16 0 5 5 9 10 9 6 0 10 -7 10 -16z m-15280 -170 c0 -20 -4
-25 -22 -22 -30 4 -33 23 -6 36 13 6 24 11 26 11 1 1 2 -11 2 -25z m-2228 -56
c-9 -9 -15 -9 -24 0 -9 9 -7 12 12 12 19 0 21 -3 12 -12z m16910 0 c-9 -9 -15
-9 -24 0 -9 9 -7 12 12 12 19 0 21 -3 12 -12z m-16752 -149 c0 -6 -4 -7 -10
-4 -5 3 -10 11 -10 16 0 6 5 7 10 4 6 -3 10 -11 10 -16z m16910 0 c0 -6 -4 -7
-10 -4 -5 3 -10 11 -10 16 0 6 5 7 10 4 6 -3 10 -11 10 -16z m-857 -176 c-7
-2 -19 -2 -25 0 -7 3 -2 5 12 5 14 0 19 -2 13 -5z m-13563 -55 c0 -6 -7 -7
-16 -4 -9 3 -18 6 -20 6 -3 0 -3 4 1 10 7 11 35 2 35 -12z m337 -90 c-3 -7 -5
-2 -5 12 0 14 2 19 5 13 2 -7 2 -19 0 -25z m2353 -258 c0 -29 -4 -40 -15 -40
-11 0 -15 11 -15 40 0 29 4 40 15 40 11 0 15 -11 15 -40z m133 20 c7 -27 -3
-62 -17 -57 -6 2 -12 14 -14 26 -7 45 20 72 31 31z m1387 -20 c0 -29 -4 -40
-15 -40 -11 0 -15 11 -15 40 0 29 4 40 15 40 11 0 15 -11 15 -40z m133 20 c7
-27 -3 -62 -17 -57 -6 2 -12 14 -14 26 -7 45 20 72 31 31z m4765 -23 c2 -28
-1 -37 -12 -37 -12 0 -16 11 -16 41 0 52 24 48 28 -4z m1832 6 c0 -7 -7 -13
-16 -13 -11 0 -14 5 -10 16 3 9 6 21 6 27 0 16 20 -14 20 -30z m-3450 -3 c0
-11 -7 -20 -15 -20 -13 0 -13 3 -3 20 7 11 14 20 15 20 2 0 3 -9 3 -20z m-94
-17 c-10 -10 -19 5 -10 18 6 11 8 11 12 0 2 -7 1 -15 -2 -18z m3434 -35 c0 -5
-9 -8 -20 -8 -16 0 -20 7 -20 38 l0 37 20 -30 c11 -16 20 -33 20 -37z m128 5
c2 -9 -7 -13 -27 -13 -21 0 -31 5 -31 16 0 19 51 16 58 -3z m-7528 -77 c0 -3
-4 -8 -10 -11 -5 -3 -10 -1 -10 4 0 6 5 11 10 11 6 0 10 -2 10 -4z m8450 -6
c0 -5 -5 -10 -11 -10 -5 0 -7 5 -4 10 3 6 8 10 11 10 2 0 4 -4 4 -10z m-12522
-101 c-3 -57 -19 -73 -46 -44 -13 13 -14 19 -4 22 6 3 12 17 12 33 0 19 6 30
18 33 9 3 18 5 20 6 1 0 1 -22 0 -50z m1410 -92 c2 -12 -3 -17 -17 -17 -12 0
-21 6 -21 13 0 31 32 34 38 4z m8459 7 c7 -18 -14 -35 -33 -27 -10 4 -11 10
-3 24 12 23 28 24 36 3z m-1900 -100 c-3 -3 -12 -4 -19 -1 -8 3 -5 6 6 6 11 1
17 -2 13 -5z m8450 0 c-3 -3 -12 -4 -19 -1 -8 3 -5 6 6 6 11 1 17 -2 13 -5z
m-17326 -67 c-10 -9 -11 -8 -5 6 3 10 9 15 12 12 3 -3 0 -11 -7 -18z m5564 13
c-3 -5 -11 -10 -16 -10 -6 0 -7 5 -4 10 3 6 11 10 16 10 6 0 7 -4 4 -10z
m2891 -16 c-4 -9 -9 -15 -11 -12 -3 3 -3 13 1 22 4 9 9 15 11 12 3 -3 3 -13
-1 -22z m5564 22 c0 -3 -4 -8 -10 -11 -5 -3 -10 -1 -10 4 0 6 5 11 10 11 6 0
10 -2 10 -4z m2892 -18 c-7 -7 -12 -8 -12 -2 0 14 12 26 19 19 2 -3 -1 -11 -7
-17z m-14452 -247 c0 -18 -18 -21 -30 -6 -10 13 -9 15 9 15 11 0 21 -4 21 -9z
m2887 3 c-3 -3 -12 -4 -19 -1 -8 3 -5 6 6 6 11 1 17 -2 13 -5z m5571 -6 c-3
-7 -11 -13 -18 -13 -7 0 -15 6 -17 13 -3 7 4 12 17 12 13 0 20 -5 18 -12z
m-5028 -28 c0 -5 -6 -10 -14 -10 -8 0 -18 5 -21 10 -3 6 3 10 14 10 12 0 21
-4 21 -10z m8455 0 c-3 -5 -13 -10 -21 -10 -8 0 -14 5 -14 10 0 6 9 10 21 10
11 0 17 -4 14 -10z m-14040 -20 c3 -5 2 -10 -4 -10 -5 0 -13 5 -16 10 -3 6 -2
10 4 10 5 0 13 -4 16 -10z m8450 0 c3 -5 2 -10 -4 -10 -5 0 -13 5 -16 10 -3 6
-2 10 4 10 5 0 13 -4 16 -10z m8455 0 c0 -5 -4 -10 -10 -10 -5 0 -10 5 -10 10
0 6 5 10 10 10 6 0 10 -4 10 -10z m-4633 -106 c-3 -3 -12 -4 -19 -1 -8 3 -5 6
6 6 11 1 17 -2 13 -5z m-7742 -24 c3 -5 2 -10 -4 -10 -5 0 -13 5 -16 10 -3 6
-2 10 4 10 5 0 13 -4 16 -10z m8455 0 c0 -5 -2 -10 -4 -10 -3 0 -8 5 -11 10
-3 6 -1 10 4 10 6 0 11 -4 11 -10z m-10770 -80 c0 -5 -9 -10 -21 -10 -11 0
-17 5 -14 10 3 6 13 10 21 10 8 0 14 -4 14 -10z m8455 0 c3 -5 -3 -10 -15 -10
-12 0 -18 5 -15 10 3 6 10 10 15 10 5 0 12 -4 15 -10z m-11010 -20 c0 -7 -5
-15 -10 -17 -6 -2 -11 6 -11 17 0 11 5 19 11 17 5 -2 10 -10 10 -17z m8455 0
c0 -11 -4 -20 -9 -20 -5 0 -11 9 -14 20 -3 13 0 20 9 20 8 0 14 -9 14 -20z
m8455 0 c0 -7 -5 -15 -10 -17 -6 -2 -11 6 -11 17 0 11 5 19 11 17 5 -2 10 -10
10 -17z m-10328 -26 c-3 -3 -12 -4 -19 -1 -8 3 -5 6 6 6 11 1 17 -2 13 -5z
m8460 0 c-3 -3 -12 -4 -19 -1 -8 3 -5 6 6 6 11 1 17 -2 13 -5z m-11441 -59
c-23 -17 -36 -19 -36 -6 0 5 8 12 18 14 32 9 37 6 18 -8z m8454 -5 c-19 -12
-40 -13 -40 -1 0 9 40 20 50 13 2 -2 -2 -7 -10 -12z m-11513 -35 c-4 -8 -11
-15 -17 -15 -7 0 -7 6 0 21 13 23 26 19 17 -6z m8452 -1 c-15 -18 -22 -13 -13
10 3 9 10 13 16 10 5 -3 4 -12 -3 -20z m8459 9 c-2 -9 -8 -18 -15 -20 -7 -3
-9 3 -6 16 6 25 26 28 21 4z"/>
<path d="M1458 8993 c-29 -34 -30 -83 -2 -65 9 6 28 82 20 82 -2 0 -10 -8 -18
-17z"/>
<path d="M1280 8979 c-14 -25 -9 -61 6 -51 14 9 26 72 14 72 -5 0 -14 -9 -20
-21z"/>
<path d="M2886 9014 c-23 -23 -20 -30 4 -9 11 10 20 20 20 22 0 7 -9 2 -24
-13z"/>
<path d="M2151 8984 c-31 -39 -27 -78 5 -56 9 6 26 82 18 82 -2 0 -12 -12 -23
-26z"/>
<path d="M15156 9054 c-33 -33 -12 -124 28 -124 42 0 63 92 28 123 -23 21 -36
21 -56 1z"/>
<path d="M16190 9034 c0 -23 4 -34 12 -32 33 11 36 68 3 68 -11 0 -15 -10 -15
-36z"/>
<path d="M16680 9000 c0 -67 1 -70 24 -70 36 0 56 26 56 70 0 44 -20 70 -56
70 -23 0 -24 -3 -24 -70z"/>
<path d="M17643 9010 c-11 -28 -10 -30 13 -30 27 0 29 5 11 37 l-13 23 -11
-30z"/>
<path d="M17810 9044 c0 -31 23 -28 28 4 2 15 -2 22 -12 22 -11 0 -16 -9 -16
-26z"/>
<path d="M17810 8966 c0 -26 4 -36 15 -36 33 0 30 57 -3 68 -8 2 -12 -9 -12
-32z"/>
<path d="M17966 9048 c-34 -48 -4 -128 43 -113 44 14 52 103 11 125 -27 15
-37 12 -54 -12z"/>
<path d="M524 9008 l-19 -23 23 19 c21 18 27 26 19 26 -2 0 -12 -10 -23 -22z"/>
<path d="M9022 7828 c-7 -7 -12 -26 -12 -44 0 -36 21 -50 51 -34 33 18 20 90
-16 90 -6 0 -16 -5 -23 -12z"/>
<path d="M8617 7834 c-14 -14 -6 -24 19 -24 16 0 24 5 22 13 -5 14 -31 21 -41
11z"/>
<path d="M9540 7821 c-13 -26 -13 -43 3 -65 11 -15 17 -17 35 -7 27 14 31 75
6 85 -25 10 -33 7 -44 -13z"/>
<path d="M10172 7828 c-13 -13 -17 -70 -5 -81 3 -4 12 1 20 11 13 16 14 15 8
-5 -7 -24 1 -28 25 -14 8 6 14 25 14 46 0 48 -34 71 -62 43z"/>
<path d="M7680 7084 c0 -10 7 -14 22 -12 32 5 35 28 4 28 -17 0 -26 -5 -26
-16z"/>
<path d="M7680 7030 c0 -17 5 -21 28 -18 16 2 27 9 27 18 0 9 -11 16 -27 18
-23 3 -28 -1 -28 -18z"/>
<path d="M7025 7020 c-3 -5 1 -10 9 -10 8 0 18 5 21 10 3 6 -1 10 -9 10 -8 0
-18 -4 -21 -10z"/>
<path d="M7448 7063 c7 -3 16 -2 19 1 4 3 -2 6 -13 5 -11 0 -14 -3 -6 -6z"/>
<path d="M7548 7063 c7 -3 16 -2 19 1 4 3 -2 6 -13 5 -11 0 -14 -3 -6 -6z"/>
<path d="M7818 7063 c7 -3 16 -2 19 1 4 3 -2 6 -13 5 -11 0 -14 -3 -6 -6z"/>
<path d="M9504 7056 c-8 -22 3 -49 19 -43 6 2 12 14 12 27 0 27 -22 39 -31 16z"/>
<path d="M11648 7063 c7 -3 16 -2 19 1 4 3 -2 6 -13 5 -11 0 -14 -3 -6 -6z"/>
<path d="M11667 7042 c-63 -5 -38 -26 31 -27 34 0 62 0 62 1 0 11 -63 28 -93
26z"/>
<path d="M12014 7056 c-8 -22 3 -49 19 -43 6 2 12 14 12 27 0 27 -22 39 -31
16z"/>
<path d="M6566 6341 c-3 -4 6 -6 19 -3 14 2 25 6 25 8 0 8 -39 4 -44 -5z"/>
<path d="M6973 6290 c0 -53 1 -57 6 -25 5 33 10 40 28 39 12 0 19 4 16 9 -3 5
-14 7 -24 4 -12 -3 -19 2 -22 17 -2 11 -4 -8 -4 -44z"/>
<path d="M7112 6333 c-4 -10 -5 -38 -1 -63 l6 -45 3 45 c1 25 2 49 1 54 -1 5
4 13 11 17 9 6 10 9 1 9 -7 0 -16 -8 -21 -17z"/>
<path d="M7493 6290 c-1 -43 1 -57 6 -40 5 14 14 24 22 22 8 -2 11 0 6 4 -4 4
1 17 10 28 14 16 12 16 -9 -3 l-27 -23 -4 38 c-2 24 -4 14 -4 -26z"/>
<path d="M6558 6308 c16 -19 72 -41 72 -28 0 5 -12 13 -27 16 -16 4 -35 12
-43 18 -13 9 -13 9 -2 -6z"/>
<path d="M6665 6309 c-4 -6 -4 -13 -1 -16 3 -4 6 -1 6 5 0 6 8 13 18 15 15 4
15 5 0 6 -9 0 -20 -4 -23 -10z"/>
<path d="M6756 6312 c-3 -5 6 -7 19 -4 34 6 32 -14 -2 -27 l-28 -11 28 5 c24
5 28 3 25 -12 -2 -11 -12 -18 -25 -17 -12 0 -20 -3 -17 -8 3 -4 16 -7 30 -6
23 2 25 6 22 43 -2 32 -7 41 -25 43 -11 2 -24 -1 -27 -6z"/>
<path d="M6910 6316 c0 -2 9 -6 20 -9 11 -3 18 -1 14 4 -5 9 -34 13 -34 5z"/>
<path d="M7156 6312 c-4 -6 3 -8 15 -5 12 4 25 0 31 -8 8 -12 9 -11 5 1 -4 17
-42 26 -51 12z"/>
<path d="M7338 6313 c7 -3 16 -2 19 1 4 3 -2 6 -13 5 -11 0 -14 -3 -6 -6z"/>
<path d="M7383 6275 c0 -27 2 -38 4 -22 2 15 2 37 0 50 -2 12 -4 0 -4 -28z"/>
<path d="M7422 6308 c-26 -26 -7 -79 28 -77 9 0 6 4 -8 10 -32 12 -28 64 5 63
12 0 20 3 17 8 -7 12 -28 10 -42 -4z"/>
<path d="M7580 6306 c-15 -20 -9 -56 12 -70 14 -8 21 -6 35 9 16 17 17 18 1 6
-19 -14 -48 -9 -48 9 0 5 14 10 30 10 31 0 39 17 18 38 -16 16 -33 15 -48 -2z
m48 -13 c2 -8 -6 -13 -22 -13 -25 0 -33 10 -19 24 10 10 36 3 41 -11z"/>
<path d="M7675 6310 c-3 -6 1 -7 9 -4 18 7 21 14 7 14 -6 0 -13 -4 -16 -10z"/>
<path d="M7730 6316 c0 -2 9 -6 20 -9 11 -3 18 -1 14 4 -5 9 -34 13 -34 5z"/>
<path d="M7719 6286 c11 -12 51 -29 51 -21 0 2 -14 10 -31 19 -23 12 -28 12
-20 2z"/>
<path d="M6673 6273 c9 -2 25 -2 35 0 9 3 1 5 -18 5 -19 0 -27 -2 -17 -5z"/>
<path d="M6559 6248 c7 -10 23 -17 35 -17 20 1 20 2 1 6 -11 3 -27 10 -35 17
-13 10 -13 9 -1 -6z"/>
<path d="M7536 6247 c3 -10 9 -15 12 -12 3 3 0 11 -7 18 -10 9 -11 8 -5 -6z"/>
<path d="M6667 6238 c2 -5 13 -8 23 -8 10 0 21 3 23 8 3 4 -8 7 -23 7 -15 0
-26 -3 -23 -7z"/>
<path d="M6925 6240 c-16 -7 -17 -9 -3 -9 9 -1 20 4 23 9 7 11 7 11 -20 0z"/>
<path d="M7158 6238 c5 -5 16 -8 23 -6 8 3 3 7 -10 11 -17 4 -21 3 -13 -5z"/>
<path d="M7717 6238 c2 -5 13 -8 23 -8 10 0 21 3 23 8 3 4 -8 7 -23 7 -15 0
-26 -3 -23 -7z"/>
<path d="M4354 5805 c-9 -22 3 -46 26 -52 11 -3 20 -12 20 -21 0 -12 -3 -13
-12 -4 -7 7 -20 12 -30 12 -16 0 -17 -3 -8 -20 11 -20 43 -26 74 -14 16 6 23
54 8 54 -5 0 -17 7 -28 15 -18 13 -17 14 11 6 24 -6 31 -14 35 -42 5 -34 5
-34 60 -36 37 -1 60 3 71 13 15 13 17 13 23 -1 7 -20 67 -17 74 3 3 9 -3 13
-19 10 -16 -2 -25 3 -27 15 -3 13 3 17 23 17 38 0 26 24 -13 28 -22 2 -34 -2
-38 -13 -6 -14 -8 -14 -25 1 -13 12 -28 15 -50 10 -25 -5 -32 -2 -36 14 -7 25
-28 26 -43 3 -10 -17 -10 -17 -20 0 -14 21 -68 23 -76 2z m202 -71 c-5 -13
-10 -14 -18 -6 -6 6 -8 18 -4 28 5 13 10 14 18 6 6 -6 8 -18 4 -28z"/>
<path d="M4690 5760 c0 -47 3 -60 15 -60 8 0 15 8 15 18 1 16 1 16 11 0 5 -10
19 -18 31 -18 19 0 20 1 4 25 -13 20 -14 30 -5 46 10 20 9 21 -15 17 -20 -4
-26 -1 -26 13 0 11 -7 19 -15 19 -12 0 -15 -13 -15 -60z"/>
<path d="M5210 5760 c0 -47 3 -60 15 -60 9 0 15 9 15 25 0 19 5 25 23 25 13 0
28 5 35 12 9 9 12 4 12 -25 0 -30 4 -37 20 -37 15 0 20 7 20 29 0 17 5 33 10
36 6 3 10 -4 10 -17 0 -46 53 -66 81 -31 13 15 11 16 -13 11 -16 -3 -28 -1
-28 3 0 5 11 9 24 9 13 0 26 6 29 13 2 6 7 -3 11 -21 11 -45 44 -41 62 8 l12
35 1 -37 c1 -31 5 -38 21 -38 12 0 20 7 20 18 1 16 1 16 11 0 12 -21 59 -24
77 -6 7 7 12 21 12 33 0 12 -5 26 -12 33 -18 18 -65 15 -77 -5 -10 -17 -10
-17 -11 0 0 13 -9 17 -40 17 -31 0 -40 -4 -40 -17 -1 -17 -1 -17 -11 0 -11 19
-39 23 -39 6 0 -8 -4 -8 -12 -1 -7 5 -40 10 -72 11 -43 0 -62 5 -68 16 -6 10
-24 15 -53 15 l-45 0 0 -60z m60 25 c0 -8 -7 -15 -15 -15 -8 0 -15 7 -15 15 0
8 7 15 15 15 8 0 15 -7 15 -15z m383 -52 c-4 -10 -9 -11 -16 -4 -5 5 -7 18 -3
28 6 14 9 15 16 4 4 -8 6 -21 3 -28z"/>
<path d="M5550 5810 c0 -5 9 -10 20 -10 11 0 20 5 20 10 0 6 -9 10 -20 10 -11
0 -20 -4 -20 -10z"/>
<path d="M5936 5798 c-32 -45 -6 -98 48 -98 17 0 37 5 44 12 9 9 12 9 12 0 0
-7 9 -12 20 -12 12 0 20 7 20 18 1 16 1 16 11 0 11 -20 59 -24 76 -7 8 8 13 8
17 0 9 -14 51 -14 76 -1 13 7 21 7 25 0 10 -16 51 -12 66 7 13 15 11 16 -13
11 -16 -3 -28 -1 -28 3 0 5 11 9 25 9 28 0 33 21 11 40 -21 17 -59 8 -71 -17
-7 -14 -16 -19 -24 -13 -11 6 -11 8 0 12 7 2 9 10 5 16 -9 15 -58 16 -73 1 -8
-8 -13 -8 -17 0 -11 18 -64 13 -75 -6 -9 -15 -10 -12 -11 15 0 25 -4 32 -20
32 -11 0 -20 -5 -20 -12 0 -9 -3 -9 -12 0 -21 21 -75 15 -92 -10z m60 -9 c3
-6 15 -9 25 -6 15 4 19 0 19 -24 0 -21 -4 -27 -15 -23 -8 4 -22 1 -30 -6 -20
-16 -35 -4 -35 29 0 38 20 55 36 30z m147 -56 c-4 -10 -9 -11 -16 -4 -5 5 -7
18 -3 28 6 14 9 15 16 4 4 -8 6 -21 3 -28z m82 -3 c2 -4 -7 -5 -20 -2 -14 2
-25 8 -25 12 0 10 38 1 45 -10z"/>
<path d="M6776 5804 c-9 -8 -16 -28 -16 -44 0 -35 23 -60 56 -60 44 0 64 17
64 55 0 41 -22 65 -60 65 -16 0 -36 -7 -44 -16z m64 -24 c8 -14 8 -26 0 -41
-14 -25 -34 -20 -38 10 -7 47 18 68 38 31z"/>
<path d="M7170 5810 c0 -5 9 -10 20 -10 11 0 20 5 20 10 0 6 -9 10 -20 10 -11
0 -20 -4 -20 -10z"/>
<path d="M7460 5760 c0 -47 3 -60 15 -60 9 0 15 9 15 25 0 19 5 25 23 25 13 0
28 5 35 12 9 9 12 4 12 -25 0 -30 4 -37 20 -37 16 0 20 7 20 35 0 19 5 35 10
35 6 0 10 -16 10 -35 0 -28 4 -35 20 -35 14 0 20 7 21 23 l0 22 9 -22 c7 -17
18 -23 39 -23 16 0 33 5 36 10 5 8 11 7 20 0 17 -14 67 -9 73 8 2 7 -7 12 -25
13 l-28 2 31 6 c28 5 30 9 23 29 -6 16 -16 22 -40 22 -25 0 -33 -6 -42 -29
-12 -32 -45 -48 -53 -26 -9 22 4 34 27 28 16 -4 20 -2 17 8 -2 8 -19 15 -36
17 -26 3 -34 -1 -41 -20 l-10 -23 0 23 c-1 20 -6 22 -50 22 -34 0 -51 4 -55
15 -4 10 -20 15 -51 15 l-45 0 0 -60z m60 25 c0 -8 -7 -15 -15 -15 -8 0 -15 7
-15 15 0 8 7 15 15 15 8 0 15 -7 15 -15z"/>
<path d="M7620 5810 c0 -5 9 -10 20 -10 11 0 20 5 20 10 0 6 -9 10 -20 10 -11
0 -20 -4 -20 -10z"/>
<path d="M8250 5760 c0 -47 3 -60 15 -60 9 0 15 9 15 24 0 19 6 25 26 28 31 3
50 28 41 52 -5 11 -19 16 -52 16 l-45 0 0 -60z m60 25 c0 -8 -7 -15 -15 -15
-8 0 -15 7 -15 15 0 8 7 15 15 15 8 0 15 -7 15 -15z"/>
<path d="M8544 5803 c-10 -11 -29 -16 -46 -14 -16 1 -35 -2 -43 -9 -9 -7 -15
-8 -20 0 -9 14 -58 13 -73 -2 -7 -7 -12 -21 -12 -33 0 -12 5 -26 12 -33 15
-15 60 -16 75 -1 8 8 13 8 17 0 4 -6 20 -11 35 -11 15 0 32 5 38 11 8 8 13 8
17 0 9 -14 56 -15 56 -1 0 6 -4 10 -10 10 -14 0 -12 47 3 54 10 5 10 7 0 12
-7 3 -13 12 -13 20 0 19 -15 18 -36 -3z m-134 -58 c0 -14 -4 -25 -10 -25 -5 0
-10 11 -10 25 0 14 5 25 10 25 6 0 10 -11 10 -25z m130 10 c0 -9 -6 -12 -16
-8 -13 5 -13 7 -2 14 17 11 18 11 18 -6z m-45 -25 c2 -4 -7 -5 -20 -2 -14 2
-25 8 -25 12 0 10 38 1 45 -10z"/>
<path d="M8640 5760 l0 -60 40 0 c25 0 40 5 40 13 0 8 2 9 8 1 9 -15 102 -17
119 -2 9 7 13 7 13 -1 0 -6 9 -11 20 -11 16 0 20 7 20 36 0 21 4 33 10 29 6
-3 10 -19 10 -36 0 -46 30 -38 31 9 l2 37 6 -35 c6 -33 9 -35 49 -38 35 -3 42
0 42 15 1 17 1 17 11 1 12 -21 59 -24 77 -6 9 9 12 9 12 0 0 -7 9 -12 20 -12
16 0 20 7 20 30 0 17 5 30 10 30 6 0 10 -13 10 -29 0 -28 1 -29 54 -30 63 0
94 21 63 44 -13 9 -14 14 -6 17 7 2 9 10 5 16 -9 15 -58 16 -73 1 -8 -8 -13
-8 -17 0 -10 15 -86 14 -86 -1 0 -9 -3 -9 -12 0 -18 18 -65 15 -77 -5 -10 -17
-10 -17 -11 0 0 11 -8 17 -25 17 -16 0 -25 6 -25 15 0 20 -27 19 -39 -2 -7
-13 -20 -16 -55 -14 -31 2 -46 -1 -46 -9 0 -10 -4 -9 -15 0 -9 7 -27 10 -45 6
-25 -5 -30 -2 -30 14 0 29 -48 27 -60 -2 l-9 -23 -7 23 c-4 15 -14 22 -30 22
-23 0 -24 -3 -24 -60z m367 -27 c-3 -10 -5 -4 -5 12 0 17 2 24 5 18 2 -7 2
-21 0 -30z m106 0 c-4 -10 -9 -11 -16 -4 -5 5 -7 18 -3 28 6 14 9 15 16 4 4
-8 6 -21 3 -28z m182 -3 c2 -4 -7 -5 -20 -2 -14 2 -25 8 -25 12 0 10 38 1 45
-10z m-435 6 c0 -8 -51 -13 -56 -5 -3 5 9 9 25 9 17 0 31 -2 31 -4z"/>
<path d="M9010 5810 c0 -5 9 -10 20 -10 11 0 20 5 20 10 0 6 -9 10 -20 10 -11
0 -20 -4 -20 -10z"/>
<path d="M9756 5804 c-9 -8 -16 -28 -16 -44 0 -36 24 -60 59 -60 36 0 62 26
36 36 -10 4 -20 1 -25 -6 -12 -20 -30 -2 -30 30 0 32 18 50 30 30 5 -7 15 -10
25 -6 14 5 15 9 5 21 -16 20 -64 19 -84 -1z"/>
<path d="M10434 5805 c-4 -11 -21 -15 -55 -15 -44 0 -49 -2 -50 -22 l0 -23 -9
23 c-11 27 -64 31 -78 6 -8 -14 -10 -14 -15 -1 -4 11 -22 15 -66 16 l-61 1 0
-45 c0 -33 4 -45 15 -45 10 0 15 10 15 30 0 17 5 30 10 30 6 0 10 -13 10 -30
0 -20 5 -30 15 -30 10 0 15 10 15 30 0 17 5 30 10 30 6 0 10 -13 10 -30 0 -20
5 -30 15 -30 8 0 15 8 15 17 0 15 1 15 13 -1 9 -12 23 -17 42 -14 38 4 44 25
8 31 -27 4 -27 4 5 6 26 1 32 -3 32 -19 0 -11 7 -20 15 -20 10 0 15 10 15 29
0 17 5 33 10 36 6 4 10 -8 10 -29 0 -29 4 -36 19 -36 15 0 21 8 24 38 l4 37 1
-37 c2 -33 5 -38 27 -38 14 0 25 5 25 10 0 6 -4 10 -10 10 -14 0 -12 47 3 54
10 5 10 7 0 12 -7 3 -13 12 -13 20 0 19 -19 18 -26 -1z"/>
<path d="M10520 5762 l0 -60 65 0 c37 0 65 5 65 10 0 7 5 7 13 0 7 -6 36 -11
65 -10 51 0 52 1 52 29 0 16 5 29 10 29 6 0 10 -13 10 -29 0 -29 0 -29 65 -30
l65 -1 0 45 c0 41 -2 45 -25 45 -16 0 -25 6 -25 15 0 20 -15 19 -35 -2 -13
-12 -35 -16 -93 -15 -43 0 -83 -4 -89 -10 -10 -8 -13 -4 -13 16 0 21 -5 26
-25 26 -18 0 -26 -7 -32 -27 l-7 -28 -6 25 c-4 18 -14 26 -33 28 -27 3 -27 3
-27 -56z m380 -17 c0 -14 -4 -25 -10 -25 -5 0 -10 11 -10 25 0 14 5 25 10 25
6 0 10 -11 10 -25z m-160 -9 c0 -2 -11 -6 -25 -8 -14 -3 -25 -1 -25 3 0 5 11
9 25 9 14 0 25 -2 25 -4z"/>
<path d="M10900 5810 c0 -5 7 -10 15 -10 8 0 15 5 15 10 0 6 -7 10 -15 10 -8
0 -15 -4 -15 -10z"/>
<path d="M11642 5808 c-20 -20 -14 -37 18 -53 19 -10 28 -20 23 -27 -5 -9 -8
-9 -11 0 -4 13 -42 17 -42 4 0 -28 64 -44 87 -21 8 8 13 8 17 0 9 -15 59 -14
74 1 9 9 12 9 12 0 0 -7 9 -12 20 -12 16 0 20 7 20 36 0 21 4 33 10 29 6 -3
10 -19 10 -36 0 -46 30 -38 31 9 l2 37 6 -35 c6 -33 9 -35 49 -38 l42 -3 0 45
c0 42 -2 46 -25 46 -16 0 -25 6 -25 15 0 20 -27 19 -39 -2 -7 -13 -20 -16 -55
-14 -28 1 -46 -2 -46 -8 0 -8 -6 -8 -18 0 -23 14 -69 4 -74 -15 -3 -13 -6 -13
-22 0 -17 12 -18 14 -3 14 9 0 17 4 17 8 0 15 -24 32 -45 32 -12 0 -26 -5 -33
-12z m325 -75 c-3 -10 -5 -4 -5 12 0 17 2 24 5 18 2 -7 2 -21 0 -30z m-147 3
c0 -8 -51 -13 -56 -5 -3 5 9 9 25 9 17 0 31 -2 31 -4z"/>
<path d="M11970 5810 c0 -5 9 -10 20 -10 11 0 20 5 20 10 0 6 -9 10 -20 10
-11 0 -20 -4 -20 -10z"/>
<path d="M12354 5805 c-4 -11 -21 -15 -55 -15 -44 0 -49 -2 -50 -22 l0 -23 -9
23 c-11 27 -64 31 -78 6 -8 -14 -10 -14 -15 -1 -4 11 -22 15 -66 16 l-61 1 0
-45 c0 -33 4 -45 15 -45 10 0 15 10 15 30 0 17 5 30 10 30 6 0 10 -13 10 -30
0 -20 5 -30 15 -30 10 0 15 10 15 30 0 17 5 30 10 30 6 0 10 -13 10 -30 0 -20
5 -30 15 -30 8 0 15 8 15 17 0 15 1 15 13 -1 9 -12 23 -17 42 -14 38 4 44 25
8 31 -27 4 -27 4 5 6 26 1 32 -3 32 -19 0 -11 7 -20 15 -20 10 0 15 10 15 29
0 17 5 33 10 36 6 4 10 -8 10 -29 0 -29 4 -36 19 -36 15 0 21 8 24 38 l4 37 1
-37 c2 -33 5 -38 27 -38 14 0 25 5 25 10 0 6 -4 10 -10 10 -14 0 -12 47 3 54
10 5 10 7 0 12 -7 3 -13 12 -13 20 0 19 -19 18 -26 -1z"/>
<path d="M13400 5760 c0 -53 2 -60 20 -60 15 0 20 7 20 25 0 19 5 25 23 25 13
0 28 5 35 12 9 9 12 4 12 -25 0 -30 4 -37 20 -37 16 0 20 7 20 35 0 19 5 35
10 35 6 0 10 -16 10 -35 0 -28 4 -35 20 -35 12 0 20 7 20 18 1 16 1 16 11 0
11 -20 64 -25 74 -8 5 8 11 7 20 0 18 -15 67 -9 73 9 3 10 -2 13 -22 9 -14 -3
-26 -1 -26 3 0 5 11 9 25 9 18 0 25 5 25 20 0 24 -45 38 -71 22 -12 -8 -20 -8
-24 -2 -10 17 -63 11 -74 -7 -10 -17 -10 -17 -11 0 0 14 -9 17 -49 17 -31 0
-53 5 -61 15 -8 9 -30 15 -56 15 l-44 0 0 -60z m70 25 c0 -8 -7 -15 -15 -15
-8 0 -15 7 -15 15 0 8 7 15 15 15 8 0 15 -7 15 -15z m230 -39 c0 -14 -34 -28
-44 -18 -15 14 -4 32 19 32 15 0 25 -6 25 -14z"/>
<path d="M13570 5810 c0 -5 9 -10 20 -10 11 0 20 5 20 10 0 6 -9 10 -20 10
-11 0 -20 -4 -20 -10z"/>
<path d="M13850 5804 c-8 -8 -13 -28 -13 -44 0 -16 5 -36 13 -44 15 -19 71
-21 88 -4 9 9 12 9 12 0 0 -7 9 -12 20 -12 15 0 20 7 20 29 0 17 5 33 10 36 6
4 10 -8 10 -28 l0 -35 85 -1 85 -1 0 35 c0 22 4 34 10 30 6 -3 10 -19 10 -36
0 -19 5 -29 15 -29 8 0 15 7 15 17 0 24 13 7 14 -19 1 -20 6 -23 41 -23 34 0
40 3 43 23 3 18 6 21 17 12 18 -15 67 -9 73 9 3 10 -2 13 -22 9 -14 -3 -26 -1
-26 3 0 5 11 9 25 9 18 0 25 5 25 20 0 24 -45 38 -72 21 -11 -7 -18 -7 -18 -1
0 5 -18 10 -40 10 -33 0 -42 -4 -49 -22 l-8 -22 -5 22 c-5 18 -13 22 -47 22
l-41 0 -1 -42 -2 -43 -6 40 c-5 35 -10 40 -34 43 -16 2 -34 -2 -42 -8 -9 -7
-15 -8 -20 0 -3 5 -15 10 -26 10 -10 0 -19 7 -19 15 0 8 -9 15 -20 15 -11 0
-20 -5 -20 -12 0 -9 -3 -9 -12 0 -17 17 -73 15 -88 -4z m56 -15 c3 -6 15 -9
25 -6 15 4 19 0 19 -24 0 -21 -4 -27 -15 -23 -8 4 -22 0 -31 -7 -24 -20 -43
16 -28 55 7 19 20 21 30 5z m384 -46 c0 -20 -3 -24 -11 -16 -7 7 -9 19 -6 27
10 24 17 19 17 -11z m-213 11 c-3 -3 -12 -4 -19 -1 -8 3 -5 6 6 6 11 1 17 -2
13 -5z"/>
<path d="M5702 5748 l3 -43 65 -2 c36 -2 75 0 88 2 25 6 30 33 6 42 -11 4 -12
8 -4 13 25 15 -2 29 -55 29 l-55 -1 0 -35 c0 -20 -4 -32 -10 -28 -5 3 -10 19
-10 36 0 20 -5 29 -16 29 -12 0 -14 -9 -12 -42z m133 -18 c2 -4 -7 -5 -20 -2
-14 2 -25 8 -25 12 0 10 38 1 45 -10z"/>
<path d="M6890 5730 c0 -47 3 -60 15 -60 8 0 15 7 15 15 0 8 8 15 18 15 10 0
23 5 30 12 9 9 15 9 24 0 7 -7 21 -12 33 -12 12 0 26 5 33 12 9 9 12 9 12 0 0
-7 9 -12 20 -12 16 0 20 7 20 30 0 17 5 30 10 30 6 0 10 -13 10 -30 0 -28 2
-30 40 -30 l40 0 0 45 c0 38 -3 45 -20 45 -11 0 -20 -5 -20 -12 0 -9 -3 -9
-12 0 -7 7 -29 12 -50 12 -23 0 -38 -5 -38 -12 0 -9 -3 -9 -12 0 -15 15 -50
16 -65 1 -8 -8 -13 -8 -17 0 -4 6 -25 11 -47 11 l-39 0 0 -60z m53 3 c-4 -10
-9 -11 -16 -4 -5 5 -7 18 -3 28 6 14 9 15 16 4 4 -8 6 -21 3 -28z m127 3 c0
-2 -11 -6 -25 -8 -14 -3 -25 -1 -25 3 0 5 11 9 25 9 14 0 25 -2 25 -4z"/>
<path d="M7220 5745 c0 -33 4 -45 15 -45 10 0 15 10 15 29 0 17 5 33 10 36 6
4 10 -8 10 -29 0 -29 4 -36 19 -36 11 0 21 5 23 12 3 9 6 9 12 0 4 -7 2 -12
-5 -12 -8 0 -8 -4 1 -15 18 -22 67 -19 80 4 5 11 10 38 10 60 0 41 0 41 -38
41 -21 0 -43 -5 -49 -11 -8 -8 -13 -8 -17 0 -4 6 -25 11 -47 11 l-39 0 0 -45z
m150 0 c0 -8 -4 -17 -10 -20 -6 -4 -10 5 -10 20 0 15 4 24 10 20 6 -3 10 -12
10 -20z"/>
<path d="M9859 5769 c-17 -33 3 -69 39 -69 15 0 33 5 40 12 9 9 12 9 12 0 0
-7 9 -12 19 -12 15 0 21 8 24 38 l4 37 1 -37 c2 -30 6 -38 21 -38 15 0 21 8
24 38 l4 37 1 -37 c2 -31 6 -38 23 -38 18 0 20 5 17 43 l-3 42 -67 3 c-49 2
-68 -1 -68 -10 0 -9 -3 -9 -12 0 -20 20 -66 14 -79 -9z m54 -36 c-4 -10 -9
-11 -16 -4 -5 5 -7 18 -3 28 6 14 9 15 16 4 4 -8 6 -21 3 -28z"/>
<path d="M10952 5778 c-7 -7 -12 -21 -12 -33 0 -12 5 -26 12 -33 18 -18 65
-15 77 6 10 16 10 16 11 0 0 -11 8 -18 19 -18 15 0 21 8 24 38 l4 37 1 -37 c2
-31 6 -38 22 -38 11 0 20 5 20 11 0 8 4 8 14 0 24 -20 70 -10 74 16 2 14 -3
23 -15 26 -17 4 -17 5 1 6 15 1 16 4 6 16 -15 18 -51 20 -67 4 -8 -8 -13 -8
-17 0 -4 6 -25 11 -47 11 -30 0 -39 -4 -39 -17 -1 -17 -1 -17 -11 0 -12 20
-59 23 -77 5z m44 -45 c-6 -14 -9 -15 -16 -4 -11 19 -1 46 13 32 5 -5 7 -18 3
-28z m159 7 c8 0 16 -4 19 -9 3 -4 -6 -6 -19 -3 -15 2 -25 11 -24 21 0 10 2
11 6 4 2 -7 11 -13 18 -13z"/>
<path d="M12447 5783 c-14 -14 -6 -34 18 -43 33 -12 32 -19 -1 -12 -20 4 -25
1 -22 -9 6 -18 51 -23 77 -10 13 7 22 8 26 1 9 -14 48 -13 63 2 9 9 15 9 24 0
18 -18 65 -15 77 6 10 16 10 16 11 0 0 -11 8 -18 20 -18 16 0 20 7 20 35 0 44
18 46 22 3 3 -29 7 -33 34 -36 20 -2 36 3 45 14 13 16 11 17 -14 12 -15 -3
-30 -1 -33 3 -3 5 9 9 25 9 20 0 31 5 31 14 0 24 -24 34 -87 35 -53 0 -63 -2
-63 -17 -1 -16 -1 -16 -11 1 -11 19 -59 23 -77 5 -8 -8 -15 -8 -26 1 -21 18
-59 10 -71 -16 -7 -14 -16 -19 -24 -13 -11 6 -11 8 0 12 7 2 9 10 5 16 -8 13
-58 17 -69 5z m173 -38 c0 -7 -11 -15 -25 -17 -21 -4 -25 -1 -25 17 0 18 4 21
25 17 14 -2 25 -10 25 -17z m56 -12 c-6 -14 -9 -15 -16 -4 -11 19 -1 46 13 32
5 -5 7 -18 3 -28z"/>
<path d="M4356 5384 c-17 -55 -14 -86 5 -51 12 21 59 23 59 2 0 -10 10 -15 30
-15 20 0 30 5 30 15 0 21 40 19 56 -2 22 -31 25 -8 6 48 -26 74 -46 75 -68 5
-10 -31 -21 -56 -24 -56 -4 0 -15 25 -25 55 -25 73 -46 73 -69 -1z m47 6 c3
-13 0 -20 -9 -20 -8 0 -14 9 -14 20 0 11 4 20 9 20 5 0 11 -9 14 -20z m117
-12 c0 -5 -7 -8 -15 -8 -17 0 -18 2 -9 25 5 13 8 14 15 3 5 -7 9 -16 9 -20z"/>
<path d="M4580 5380 c0 -33 4 -60 10 -60 6 0 10 11 10 24 0 19 6 25 26 28 63
7 51 68 -12 68 l-34 0 0 -60z m65 25 c0 -5 -10 -11 -22 -13 -16 -2 -23 2 -23
13 0 11 7 15 23 13 12 -2 22 -7 22 -13z"/>
<path d="M4680 5380 l0 -60 45 0 c25 0 45 5 45 10 0 6 -13 10 -30 10 -29 0
-30 1 -30 50 0 38 -4 50 -15 50 -12 0 -15 -13 -15 -60z"/>
<path d="M5608 5421 c-22 -22 -23 -32 -3 -25 12 5 15 -3 15 -35 0 -23 5 -41
10 -41 6 0 10 27 10 60 0 64 -5 69 -32 41z"/>
<path d="M5696 5396 c-32 -55 -32 -56 -2 -56 13 0 27 -6 29 -12 7 -18 29 12
22 30 -3 8 -5 29 -5 48 0 46 -13 43 -44 -10z m20 -33 c-10 -10 -19 5 -10 18 6
11 8 11 12 0 2 -7 1 -15 -2 -18z"/>
<path d="M5782 5428 c-7 -7 -12 -29 -12 -49 0 -43 23 -68 48 -52 25 15 21 56
-5 68 -32 14 -29 27 5 19 24 -7 26 -6 13 9 -16 20 -32 22 -49 5z m33 -68 c0
-7 -6 -15 -12 -17 -8 -3 -13 4 -13 17 0 13 5 20 13 18 6 -3 12 -11 12 -18z"/>
<path d="M5914 5428 c-16 -21 -11 -90 7 -101 32 -20 48 -2 46 55 -2 45 -5 53
-23 56 -11 2 -25 -3 -30 -10z m36 -23 c0 -8 -4 -15 -9 -15 -13 0 -22 16 -14
24 11 11 23 6 23 -9z m0 -50 c0 -8 -4 -15 -9 -15 -13 0 -22 16 -14 24 11 11
23 6 23 -9z"/>
<path d="M7087 5422 c-21 -23 -22 -33 -2 -26 12 5 15 -3 15 -35 0 -23 5 -41
10 -41 6 0 10 27 10 60 0 63 -7 71 -33 42z"/>
<path d="M7173 5400 c-28 -48 -29 -60 -3 -60 11 0 20 -4 20 -10 0 -14 27 -12
32 3 8 23 -4 107 -16 107 -6 0 -21 -18 -33 -40z m17 -25 c0 -8 -4 -15 -10 -15
-5 0 -7 7 -4 15 4 8 8 15 10 15 2 0 4 -7 4 -15z"/>
<path d="M7240 5430 c0 -5 11 -10 25 -10 25 0 25 -1 10 -30 -17 -33 -20 -70
-5 -70 6 0 10 10 10 23 0 12 9 37 20 55 11 18 20 35 20 37 0 3 -18 5 -40 5
-22 0 -40 -4 -40 -10z"/>
<path d="M7386 5418 c-11 -42 -8 -49 19 -42 21 5 25 3 25 -15 0 -23 -25 -29
-33 -8 -2 6 -8 9 -12 5 -13 -12 3 -38 23 -38 45 0 55 55 14 76 -24 12 -19 24
10 24 10 0 18 5 18 10 0 6 -13 10 -29 10 -21 0 -30 -6 -35 -22z"/>
<path d="M7476 5418 c-11 -42 -8 -49 19 -42 21 5 25 3 25 -15 0 -23 -25 -29
-33 -8 -2 6 -8 9 -12 5 -13 -12 3 -38 23 -38 45 0 55 55 14 76 -24 12 -19 24
10 24 10 0 18 5 18 10 0 6 -13 10 -29 10 -21 0 -30 -6 -35 -22z"/>
<path d="M8777 5422 c-21 -23 -22 -33 -2 -26 12 5 15 -3 15 -35 0 -23 5 -41
10 -41 6 0 10 27 10 60 0 63 -7 71 -33 42z"/>
<path d="M10456 5432 c-3 -6 -6 -21 -5 -33 0 -13 -1 -32 -3 -43 -4 -26 27 -44
50 -30 9 7 16 20 14 30 -2 11 -4 33 -5 49 -1 22 -8 31 -24 33 -11 2 -24 -1
-27 -6z m34 -27 c0 -8 -4 -15 -10 -15 -5 0 -10 7 -10 15 0 8 5 15 10 15 6 0
10 -7 10 -15z m5 -44 c7 -12 -12 -24 -25 -16 -11 7 -4 25 10 25 5 0 11 -4 15
-9z"/>
<path d="M12167 5422 c-21 -23 -22 -33 -2 -26 12 5 15 -3 15 -35 0 -23 5 -41
10 -41 6 0 10 27 10 60 0 63 -7 71 -33 42z"/>
<path d="M12280 5421 c-23 -44 -1 -107 35 -100 25 5 40 56 26 92 -12 32 -45
36 -61 8z m43 -21 c6 -24 -2 -60 -13 -60 -13 0 -22 38 -15 60 3 11 10 20 15
20 4 0 10 -9 13 -20z"/>
<path d="M5860 5330 c0 -5 5 -10 10 -10 6 0 10 5 10 10 0 6 -4 10 -10 10 -5 0
-10 -4 -10 -10z"/>
<path d="M7340 5330 c0 -5 5 -10 10 -10 6 0 10 5 10 10 0 6 -4 10 -10 10 -5 0
-10 -4 -10 -10z"/>
<path d="M12230 5330 c0 -5 5 -10 10 -10 6 0 10 5 10 10 0 6 -4 10 -10 10 -5
0 -10 -4 -10 -10z"/>
<path d="M4497 5007 c-20 -63 -20 -67 -7 -67 6 0 10 7 10 15 0 10 10 15 30 15
20 0 30 -5 30 -15 0 -8 5 -15 10 -15 13 0 13 4 -7 67 -11 35 -22 53 -33 53
-11 0 -22 -18 -33 -53z m46 3 c4 -15 0 -20 -13 -20 -13 0 -17 5 -13 20 3 11 9
20 13 20 4 0 10 -9 13 -20z"/>
<path d="M4600 5000 c0 -33 4 -60 10 -60 6 0 10 27 10 60 0 33 -4 60 -10 60
-6 0 -10 -27 -10 -60z"/>
<path d="M5600 5041 c0 -11 -3 -27 -6 -36 -5 -13 -2 -15 20 -9 22 5 26 3 26
-15 0 -23 -25 -29 -33 -8 -2 6 -8 9 -13 4 -4 -4 0 -15 9 -25 23 -22 51 -6 55
32 3 21 -2 29 -17 33 -27 7 -27 23 -1 23 11 0 20 5 20 10 0 6 -13 10 -30 10
-23 0 -30 -5 -30 -19z"/>
<path d="M5689 5044 c-11 -13 -9 -14 14 -9 27 7 39 -8 15 -19 -10 -5 -10 -7 0
-12 17 -8 15 -44 -2 -44 -8 0 -16 6 -19 13 -2 6 -8 9 -13 4 -4 -4 0 -15 9 -25
27 -26 52 -4 52 44 0 60 -27 83 -56 48z"/>
<path d="M5821 5041 c-24 -45 -3 -107 35 -99 16 3 19 12 19 58 0 49 -2 55 -22
58 -14 2 -26 -4 -32 -17z m42 -21 c7 -27 -3 -62 -17 -57 -6 2 -12 14 -14 26
-7 45 20 72 31 31z"/>
<path d="M5916 5052 c-3 -6 -6 -21 -5 -33 0 -13 -1 -32 -3 -43 -4 -22 23 -42
45 -33 12 4 15 19 14 59 -2 46 -5 53 -24 56 -11 2 -24 -1 -27 -6z m34 -27 c0
-8 -4 -15 -9 -15 -13 0 -22 16 -14 24 11 11 23 6 23 -9z m5 -44 c7 -12 -12
-24 -25 -16 -11 7 -4 25 10 25 5 0 11 -4 15 -9z"/>
<path d="M7120 5041 c0 -11 -3 -27 -6 -36 -5 -13 -2 -15 20 -9 22 5 26 3 26
-15 0 -23 -25 -29 -33 -8 -2 6 -8 9 -13 4 -4 -4 0 -15 9 -25 23 -22 51 -6 55
32 3 21 -2 29 -17 33 -27 7 -27 23 -1 23 11 0 20 5 20 10 0 6 -13 10 -30 10
-23 0 -30 -5 -30 -19z"/>
<path d="M7209 5044 c-11 -13 -9 -14 14 -9 27 7 39 -8 15 -19 -10 -5 -10 -7 0
-12 17 -8 15 -44 -2 -44 -8 0 -16 6 -19 13 -2 6 -8 9 -13 4 -4 -4 0 -15 9 -25
27 -26 52 -4 52 44 0 60 -27 83 -56 48z"/>
<path d="M7357 5042 c-21 -23 -22 -33 -2 -26 12 5 15 -3 15 -35 0 -23 5 -41
10 -41 6 0 10 27 10 60 0 63 -7 71 -33 42z"/>
<path d="M7443 5020 c-28 -48 -29 -60 -4 -60 11 0 21 -6 23 -12 3 -9 10 -7 24
6 13 14 15 21 6 24 -7 2 -12 21 -12 43 0 21 -3 39 -7 39 -5 0 -18 -18 -30 -40z
m13 -37 c-10 -10 -19 5 -10 18 6 11 8 11 12 0 2 -7 1 -15 -2 -18z"/>
<path d="M8777 5042 c-21 -23 -22 -33 -2 -26 12 5 15 -3 15 -35 0 -23 5 -41
10 -41 6 0 10 27 10 60 0 63 -7 71 -33 42z"/>
<path d="M10460 5045 c-18 -21 -16 -85 2 -96 21 -14 37 -10 48 11 15 28 -5 64
-31 57 -13 -4 -19 -1 -16 6 2 7 14 11 26 9 15 -1 21 3 19 10 -7 20 -33 21 -48
3z m36 -56 c10 -17 -13 -36 -27 -22 -12 12 -4 33 11 33 5 0 12 -5 16 -11z"/>
<path d="M12167 5042 c-21 -23 -22 -33 -2 -26 12 5 15 -3 15 -35 0 -23 5 -41
10 -41 6 0 10 27 10 60 0 63 -7 71 -33 42z"/>
<path d="M12287 5053 c-26 -47 -10 -116 25 -111 46 6 45 118 -1 118 -11 0 -22
-3 -24 -7z m38 -53 c0 -18 -5 -35 -12 -37 -15 -5 -26 31 -18 58 10 31 30 17
30 -21z"/>
<path d="M13487 5042 c-21 -23 -22 -33 -3 -26 11 4 16 -5 19 -38 3 -35 4 -31
5 20 1 34 0 62 -1 62 -2 0 -11 -8 -20 -18z"/>
<path d="M13590 5050 c0 -5 11 -10 24 -10 25 0 25 -1 10 -35 -16 -40 -18 -65
-4 -65 6 0 10 10 10 23 1 12 7 33 15 47 23 40 18 50 -20 50 -19 0 -35 -4 -35
-10z"/>
<path d="M13690 5041 c-12 -23 -1 -28 18 -9 8 8 15 9 22 2 7 -7 1 -23 -20 -49
-16 -21 -30 -39 -30 -41 0 -2 16 -4 35 -4 19 0 35 5 35 10 0 6 -10 10 -22 10
l-21 0 22 24 c28 30 25 70 -6 74 -14 2 -26 -4 -33 -17z"/>
<path d="M13830 5041 c-14 -27 -13 -94 3 -114 10 -15 12 -5 12 58 0 41 -1 75
-2 75 -1 0 -7 -9 -13 -19z"/>
<path d="M13937 5054 c-14 -14 -7 -25 13 -19 21 7 28 -9 9 -20 -6 -5 -4 -12 8
-20 14 -11 16 -16 6 -26 -10 -10 -16 -10 -25 -1 -19 19 -30 14 -18 -9 7 -13
19 -19 33 -17 20 3 22 9 22 58 0 48 -3 55 -20 58 -12 2 -24 0 -28 -4z"/>
<path d="M14073 5053 c-15 -6 -17 -33 -3 -33 6 0 10 5 10 10 0 6 7 10 15 10
23 0 18 -24 -10 -50 -35 -33 -32 -50 10 -50 19 0 35 5 35 10 0 6 -9 10 -20 10
-20 0 -20 1 2 30 17 24 20 35 12 48 -12 18 -31 24 -51 15z"/>
<path d="M14166 5016 c-32 -55 -32 -56 -2 -56 13 0 27 -6 29 -12 7 -18 29 12
22 30 -3 8 -5 29 -5 48 0 46 -13 43 -44 -10z m24 -16 c0 -11 -7 -20 -15 -20
-13 0 -14 4 -5 20 6 11 13 20 15 20 3 0 5 -9 5 -20z"/>
<path d="M14244 5046 c-8 -22 3 -49 19 -43 6 2 12 14 12 27 0 27 -22 39 -31
16z m26 -16 c0 -11 -4 -20 -10 -20 -5 0 -10 9 -10 20 0 11 5 20 10 20 6 0 10
-9 10 -20z"/>
<path d="M14297 5004 c-37 -74 -33 -83 4 -10 17 32 29 60 27 62 -2 2 -16 -21
-31 -52z"/>
<path d="M14385 4985 c0 -63 2 -73 13 -58 6 9 12 35 12 58 0 23 -6 49 -12 58
-11 15 -13 5 -13 -58z"/>
<path d="M14317 4985 c-9 -22 3 -46 22 -43 10 2 16 13 16 28 0 28 -29 40 -38
15z m25 -27 c-9 -9 -12 -7 -12 12 0 19 3 21 12 12 9 -9 9 -15 0 -24z"/>
<path d="M13410 4980 c0 -5 9 -10 20 -10 11 0 20 5 20 10 0 6 -9 10 -20 10
-11 0 -20 -4 -20 -10z"/>
<path d="M13870 4980 c0 -5 9 -10 20 -10 11 0 20 5 20 10 0 6 -9 10 -20 10
-11 0 -20 -4 -20 -10z"/>
<path d="M5770 4950 c0 -5 5 -10 10 -10 6 0 10 5 10 10 0 6 -4 10 -10 10 -5 0
-10 -4 -10 -10z"/>
<path d="M7290 4950 c0 -5 5 -10 10 -10 6 0 10 5 10 10 0 6 -4 10 -10 10 -5 0
-10 -4 -10 -10z"/>
<path d="M12230 4950 c0 -5 5 -10 10 -10 6 0 10 5 10 10 0 6 -4 10 -10 10 -5
0 -10 -4 -10 -10z"/>
<path d="M14020 4950 c0 -5 5 -10 10 -10 6 0 10 5 10 10 0 6 -4 10 -10 10 -5
0 -10 -4 -10 -10z"/>
<path d="M4347 4627 c-20 -63 -20 -67 -7 -67 6 0 10 7 10 15 0 21 47 19 59 -2
19 -35 22 -4 5 51 -23 74 -44 75 -67 3z m43 -3 c0 -8 -6 -14 -14 -14 -9 0 -12
7 -9 20 6 22 23 18 23 -6z"/>
<path d="M4450 4620 c0 -68 19 -84 21 -17 l1 42 11 -42 c5 -24 15 -43 22 -43
7 0 17 19 22 43 l11 42 1 -42 c2 -67 21 -50 21 18 0 51 -3 60 -17 57 -9 -2
-21 -18 -26 -38 -10 -36 -13 -34 -31 23 -3 9 -12 17 -21 17 -12 0 -15 -13 -15
-60z"/>
<path d="M4580 4671 c0 -5 12 -11 26 -13 l26 -3 -31 -39 c-17 -21 -31 -43 -31
-47 0 -5 20 -9 45 -9 25 0 45 5 45 10 0 6 -14 10 -31 10 l-31 0 31 39 c17 21
31 44 31 50 0 6 -17 11 -40 11 -22 0 -40 -4 -40 -9z"/>
<path d="M4680 4620 c0 -66 17 -83 22 -22 l3 37 22 -37 c12 -21 27 -38 33 -38
6 0 10 25 10 60 0 66 -17 83 -22 23 l-3 -38 -20 38 c-29 56 -45 48 -45 -23z"/>
<path d="M5507 4673 c-14 -14 -6 -24 14 -18 18 6 20 4 14 -14 -4 -12 -2 -21 4
-21 6 0 11 -9 11 -20 0 -11 -7 -20 -15 -20 -8 0 -15 5 -15 10 0 6 -4 10 -10
10 -19 0 -10 -29 10 -35 32 -10 50 12 46 55 -1 20 -6 42 -10 49 -8 12 -39 15
-49 4z"/>
<path d="M5602 4668 c-7 -7 -12 -29 -12 -49 0 -43 23 -68 48 -52 25 15 21 56
-5 68 -31 13 -29 29 2 21 19 -5 23 -3 19 9 -7 18 -35 20 -52 3z m38 -68 c0
-11 -7 -20 -15 -20 -8 0 -15 9 -15 20 0 11 7 20 15 20 8 0 15 -9 15 -20z"/>
<path d="M5687 4673 c-14 -14 -6 -24 14 -18 18 6 20 4 14 -14 -4 -12 -2 -21 4
-21 6 0 11 -9 11 -20 0 -11 -7 -20 -15 -20 -8 0 -15 5 -15 10 0 6 -4 10 -10
10 -19 0 -10 -29 10 -35 32 -10 50 12 46 55 -1 20 -6 42 -10 49 -8 12 -39 15
-49 4z"/>
<path d="M5775 4668 c-2 -7 -3 -33 -2 -58 2 -47 23 -64 52 -40 14 11 15 76 2
98 -10 16 -46 16 -52 0z m37 -23 c0 -5 -5 -11 -11 -13 -6 -2 -11 4 -11 13 0 9
5 15 11 13 6 -2 11 -8 11 -13z m8 -50 c0 -8 -7 -15 -15 -15 -8 0 -15 7 -15 15
0 8 7 15 15 15 8 0 15 -7 15 -15z"/>
<path d="M5911 4661 c-24 -45 -3 -107 35 -99 16 3 19 12 19 58 0 49 -2 55 -22
58 -14 2 -26 -4 -32 -17z m39 -42 c0 -28 -4 -39 -12 -37 -24 8 -22 78 2 78 5
0 10 -18 10 -41z"/>
<path d="M5997 4673 c-14 -14 -6 -24 14 -18 18 6 20 4 14 -14 -4 -12 -2 -21 4
-21 6 0 11 -9 11 -20 0 -11 -7 -20 -15 -20 -8 0 -15 5 -15 10 0 6 -4 10 -10
10 -19 0 -10 -29 10 -35 32 -10 50 12 46 55 -1 20 -6 42 -10 49 -8 12 -39 15
-49 4z"/>
<path d="M7077 4674 c-14 -14 -7 -25 13 -19 22 7 28 -10 8 -19 -10 -5 -10 -7
0 -12 13 -6 17 -44 4 -44 -4 0 -13 5 -20 12 -6 6 -15 9 -18 5 -11 -10 16 -37
37 -37 21 0 43 35 33 52 -4 6 -7 23 -8 37 -1 18 -7 27 -21 29 -12 2 -24 0 -28
-4z"/>
<path d="M7160 4655 c-13 -33 -13 -51 0 -76 14 -25 46 -24 60 1 15 28 -5 64
-31 57 -13 -4 -19 -1 -16 6 2 7 14 11 26 9 30 -3 22 22 -7 26 -16 3 -25 -4
-32 -23z m43 -50 c8 -18 -11 -31 -25 -17 -11 11 -3 32 12 32 4 0 10 -7 13 -15z"/>
<path d="M7263 4640 c-28 -48 -29 -60 -3 -60 11 0 20 -4 20 -10 0 -14 27 -12
32 3 8 23 -4 107 -16 107 -6 0 -21 -18 -33 -40z m17 -25 c0 -8 -4 -15 -10 -15
-5 0 -7 7 -4 15 4 8 8 15 10 15 2 0 4 -7 4 -15z"/>
<path d="M7341 4661 c-24 -45 -3 -107 35 -99 16 3 19 12 19 58 0 49 -2 55 -22
58 -14 2 -26 -4 -32 -17z m39 -42 c0 -28 -4 -39 -12 -37 -24 8 -22 78 2 78 5
0 10 -18 10 -41z"/>
<path d="M7482 4668 c-6 -6 -12 -29 -12 -49 0 -62 52 -80 66 -23 14 54 -23
103 -54 72z m33 -48 c0 -18 -6 -35 -12 -37 -9 -3 -13 8 -13 37 0 29 4 40 13
38 6 -3 12 -20 12 -38z"/>
<path d="M8760 4661 c-23 -44 -1 -107 35 -100 25 5 40 56 26 92 -12 32 -45 36
-61 8z m43 -21 c6 -24 -2 -60 -13 -60 -13 0 -22 38 -15 60 3 11 10 20 15 20 4
0 10 -9 13 -20z"/>
<path d="M10463 4640 c-28 -48 -29 -60 -3 -60 11 0 20 -4 20 -10 0 -14 27 -12
32 3 8 23 -4 107 -16 107 -6 0 -21 -18 -33 -40z m17 -25 c0 -8 -4 -15 -10 -15
-5 0 -7 7 -4 15 4 8 8 15 10 15 2 0 4 -7 4 -15z"/>
<path d="M12167 4662 c-21 -23 -22 -33 -2 -26 12 5 15 -3 15 -35 0 -23 5 -41
10 -41 6 0 10 27 10 60 0 63 -7 71 -33 42z"/>
<path d="M12280 4661 c-23 -44 -1 -107 35 -100 25 5 40 56 26 92 -12 32 -45
36 -61 8z m43 -21 c6 -24 -2 -60 -13 -60 -13 0 -22 38 -15 60 3 11 10 20 15
20 4 0 10 -9 13 -20z"/>
<path d="M5860 4570 c0 -5 5 -10 10 -10 6 0 10 5 10 10 0 6 -4 10 -10 10 -5 0
-10 -4 -10 -10z"/>
<path d="M7430 4570 c0 -5 5 -10 10 -10 6 0 10 5 10 10 0 6 -4 10 -10 10 -5 0
-10 -4 -10 -10z"/>
<path d="M12230 4570 c0 -5 5 -10 10 -10 6 0 10 5 10 10 0 6 -4 10 -10 10 -5
0 -10 -4 -10 -10z"/>
<path d="M4435 4288 c-26 -73 -34 -102 -29 -107 3 -3 10 2 15 12 12 21 59 23
59 2 0 -8 6 -15 14 -15 12 0 10 11 -7 60 -21 56 -42 76 -52 48z m28 -38 c3
-13 0 -20 -9 -20 -8 0 -14 9 -14 20 0 11 4 20 9 20 5 0 11 -9 14 -20z"/>
<path d="M4510 4290 c0 -5 9 -10 20 -10 17 0 20 -7 20 -50 0 -27 5 -50 10 -50
6 0 10 23 10 50 0 38 4 50 15 50 8 0 15 5 15 10 0 6 -20 10 -45 10 -25 0 -45
-4 -45 -10z"/>
<path d="M4610 4240 c0 -33 4 -60 10 -60 6 0 10 11 10 25 0 20 5 25 25 25 20
0 25 -5 25 -25 0 -14 5 -25 10 -25 6 0 10 27 10 60 0 33 -4 60 -10 60 -5 0
-10 -11 -10 -25 0 -20 -5 -25 -25 -25 -20 0 -25 5 -25 25 0 14 -4 25 -10 25
-6 0 -10 -27 -10 -60z"/>
<path d="M5602 4288 c-17 -17 -15 -83 4 -99 31 -26 70 25 43 57 -7 8 -18 13
-26 10 -7 -3 -13 1 -13 10 0 12 6 15 25 10 19 -5 23 -3 19 9 -7 18 -35 20 -52
3z m38 -68 c0 -11 -7 -20 -15 -20 -8 0 -15 9 -15 20 0 11 7 20 15 20 8 0 15
-9 15 -20z"/>
<path d="M5689 4284 c-11 -13 -9 -14 14 -9 27 7 39 -8 15 -19 -10 -5 -10 -7 0
-12 17 -8 15 -44 -2 -44 -8 0 -16 6 -19 13 -2 6 -8 9 -13 4 -4 -4 0 -15 9 -25
27 -26 52 -4 52 44 0 60 -27 83 -56 48z"/>
<path d="M5820 4285 c-17 -20 -9 -48 18 -60 31 -14 28 -29 -5 -20 -27 6 -27 6
-10 -12 25 -25 51 -6 55 41 5 56 -29 86 -58 51z m40 -25 c0 -11 -7 -20 -15
-20 -8 0 -15 9 -15 20 0 11 7 20 15 20 8 0 15 -9 15 -20z"/>
<path d="M5900 4290 c0 -5 11 -10 25 -10 25 0 25 -1 10 -30 -17 -33 -20 -70
-5 -70 6 0 10 10 10 23 1 12 7 33 15 47 23 40 18 50 -20 50 -19 0 -35 -4 -35
-10z"/>
<path d="M7122 4288 c-17 -17 -15 -83 4 -99 31 -26 70 25 43 57 -7 8 -18 13
-26 10 -7 -3 -13 1 -13 10 0 12 6 15 25 10 19 -5 23 -3 19 9 -7 18 -35 20 -52
3z m38 -68 c0 -11 -7 -20 -15 -20 -8 0 -15 9 -15 20 0 11 7 20 15 20 8 0 15
-9 15 -20z"/>
<path d="M7209 4284 c-11 -13 -9 -14 14 -9 27 7 39 -8 15 -19 -10 -5 -10 -7 0
-12 17 -8 15 -44 -2 -44 -8 0 -16 6 -19 13 -2 6 -8 9 -13 4 -4 -4 0 -15 9 -25
27 -26 52 -4 52 44 0 60 -27 83 -56 48z"/>
<path d="M7340 4275 c-20 -52 -1 -101 36 -93 14 2 19 12 19 38 0 30 -3 35 -23
34 -12 0 -21 4 -19 10 2 6 14 10 26 8 30 -3 22 22 -7 26 -16 3 -25 -4 -32 -23z
m43 -50 c8 -18 -11 -31 -25 -17 -11 11 -3 32 12 32 4 0 10 -7 13 -15z"/>
<path d="M7420 4290 c0 -5 11 -10 25 -10 25 0 25 -1 10 -30 -17 -33 -20 -70
-5 -70 6 0 10 10 10 23 1 12 7 33 15 47 23 40 18 50 -20 50 -19 0 -35 -4 -35
-10z"/>
<path d="M8767 4293 c-26 -47 -10 -116 25 -111 46 6 45 118 -1 118 -11 0 -22
-3 -24 -7z m38 -53 c0 -18 -5 -35 -12 -37 -15 -5 -26 31 -18 58 10 31 30 17
30 -21z"/>
<path d="M10467 4282 c-21 -23 -22 -33 -2 -26 12 5 15 -3 15 -35 0 -23 5 -41
10 -41 6 0 10 27 10 60 0 63 -7 71 -33 42z"/>
<path d="M12222 4288 c-7 -7 -12 -29 -12 -49 0 -73 62 -78 68 -5 5 54 -26 84
-56 54z m38 -48 c0 -29 -4 -40 -15 -40 -11 0 -15 11 -15 40 0 29 4 40 15 40
11 0 15 -11 15 -40z"/>
<path d="M5770 4190 c0 -5 5 -10 10 -10 6 0 10 5 10 10 0 6 -4 10 -10 10 -5 0
-10 -4 -10 -10z"/>
<path d="M7290 4190 c0 -5 5 -10 10 -10 6 0 10 5 10 10 0 6 -4 10 -10 10 -5 0
-10 -4 -10 -10z"/>
<path d="M4440 3859 l0 -60 43 3 42 3 1 45 c2 56 -9 70 -52 70 l-34 0 0 -61z
m65 26 c0 -5 -10 -11 -22 -13 -16 -2 -23 2 -23 13 0 11 7 15 23 13 12 -2 22
-7 22 -13z m5 -50 c0 -9 -9 -15 -25 -15 -16 0 -25 6 -25 15 0 9 9 15 25 15 16
0 25 -6 25 -15z"/>
<path d="M4550 3910 c0 -5 9 -10 20 -10 17 0 20 -7 20 -50 0 -27 5 -50 10 -50
6 0 10 23 10 50 0 38 4 50 15 50 8 0 15 5 15 10 0 6 -20 10 -45 10 -25 0 -45
-4 -45 -10z"/>
<path d="M4650 3860 c0 -33 4 -60 10 -60 6 0 10 27 10 60 0 33 -4 60 -10 60
-6 0 -10 -27 -10 -60z"/>
<path d="M5597 3913 c-14 -14 -6 -24 14 -18 18 6 20 4 14 -14 -4 -12 -2 -21 4
-21 6 0 11 -9 11 -20 0 -11 -7 -20 -15 -20 -8 0 -15 5 -15 10 0 6 -4 10 -10
10 -19 0 -10 -29 10 -35 32 -10 50 12 46 55 -1 20 -6 42 -10 49 -8 12 -39 15
-49 4z"/>
<path d="M5680 3910 c0 -5 9 -10 20 -10 24 0 24 1 5 -43 -18 -42 -19 -57 -5
-57 6 0 10 6 10 13 0 7 9 30 20 52 27 52 26 55 -15 55 -19 0 -35 -4 -35 -10z"/>
<path d="M5824 3908 c-16 -21 -11 -90 7 -101 32 -20 48 -2 46 55 -2 45 -5 53
-23 56 -11 2 -25 -3 -30 -10z m36 -23 c0 -8 -4 -15 -9 -15 -13 0 -22 16 -14
24 11 11 23 6 23 -9z m0 -50 c0 -8 -4 -15 -9 -15 -13 0 -22 16 -14 24 11 11
23 6 23 -9z"/>
<path d="M5914 3908 c-16 -21 -11 -90 7 -101 32 -20 48 -2 46 55 -2 45 -5 53
-23 56 -11 2 -25 -3 -30 -10z m36 -23 c0 -8 -4 -15 -9 -15 -13 0 -22 16 -14
24 11 11 23 6 23 -9z m0 -50 c0 -8 -4 -15 -9 -15 -13 0 -22 16 -14 24 11 11
23 6 23 -9z"/>
<path d="M7167 3914 c-14 -14 -7 -25 13 -19 22 7 28 -10 8 -19 -10 -5 -10 -7
0 -12 13 -6 17 -44 4 -44 -4 0 -13 5 -20 12 -6 6 -15 9 -18 5 -11 -10 16 -37
37 -37 21 0 43 35 33 52 -4 6 -7 23 -8 37 -1 18 -7 27 -21 29 -12 2 -24 0 -28
-4z"/>
<path d="M7240 3910 c0 -5 11 -10 25 -10 25 0 25 -1 10 -30 -17 -33 -20 -70
-5 -70 6 0 10 10 10 23 0 12 9 37 20 55 11 18 20 35 20 37 0 3 -18 5 -40 5
-22 0 -40 -4 -40 -10z"/>
<path d="M7385 3908 c-2 -7 -3 -33 -2 -58 2 -47 23 -64 52 -40 14 11 15 76 2
98 -10 16 -46 16 -52 0z m37 -23 c0 -5 -5 -11 -11 -13 -6 -2 -11 4 -11 13 0 9
5 15 11 13 6 -2 11 -8 11 -13z m8 -50 c0 -8 -7 -15 -15 -15 -8 0 -15 7 -15 15
0 8 7 15 15 15 8 0 15 -7 15 -15z"/>
<path d="M8777 3902 c-21 -23 -22 -33 -2 -26 12 5 15 -3 15 -35 0 -23 5 -41
10 -41 6 0 10 27 10 60 0 63 -7 71 -33 42z"/>
<path d="M10457 3914 c-14 -14 -7 -25 13 -19 22 7 28 -10 8 -19 -10 -5 -10 -7
0 -12 13 -6 17 -44 4 -44 -4 0 -13 5 -20 12 -6 6 -15 9 -18 5 -11 -10 16 -37
37 -37 21 0 43 35 33 52 -4 6 -7 23 -8 37 -1 18 -7 27 -21 29 -12 2 -24 0 -28
-4z"/>
<path d="M12151 3901 c-24 -45 -3 -107 35 -99 16 3 19 12 19 58 0 49 -2 55
-22 58 -14 2 -26 -4 -32 -17z m39 -42 c0 -28 -4 -39 -12 -37 -24 8 -22 78 2
78 5 0 10 -18 10 -41z"/>
<path d="M12286 3904 c-3 -9 -6 -25 -6 -35 0 -16 5 -19 19 -14 23 7 38 -12 22
-28 -8 -8 -14 -8 -23 1 -19 19 -30 14 -18 -8 13 -23 42 -26 60 -5 17 20 9 48
-18 60 -27 12 -29 25 -2 25 11 0 20 5 20 10 0 16 -47 11 -54 -6z"/>
<path d="M13470 3901 c-14 -28 -13 -64 4 -87 22 -28 50 -7 54 40 5 58 -35 90
-58 47z m43 -21 c7 -27 -3 -62 -17 -57 -6 2 -12 14 -14 26 -7 45 20 72 31 31z"/>
<path d="M13600 3901 c-12 -23 -1 -28 18 -9 8 8 15 9 22 2 7 -7 1 -23 -20 -49
-16 -21 -30 -39 -30 -41 0 -2 16 -4 35 -4 19 0 35 5 35 10 0 6 -10 10 -22 10
l-21 0 22 24 c28 30 25 70 -6 74 -14 2 -26 -4 -33 -17z"/>
<path d="M13697 3913 c-26 -47 -10 -116 26 -111 20 3 22 9 22 58 0 49 -2 55
-22 58 -11 2 -23 0 -26 -5z m38 -54 c0 -24 -5 -34 -15 -34 -16 0 -25 37 -16
62 10 26 31 8 31 -28z"/>
<path d="M13830 3901 c-14 -27 -13 -94 3 -114 10 -15 12 -5 12 58 0 41 -1 75
-2 75 -1 0 -7 -9 -13 -19z"/>
<path d="M13937 3913 c-26 -47 -10 -116 26 -111 20 3 22 9 22 58 0 49 -2 55
-22 58 -11 2 -23 0 -26 -5z m38 -54 c0 -24 -5 -34 -15 -34 -16 0 -25 37 -16
62 10 26 31 8 31 -28z"/>
<path d="M14070 3908 c0 -7 -3 -23 -6 -36 -6 -21 -4 -22 20 -16 22 5 26 3 26
-15 0 -23 -25 -29 -33 -8 -2 6 -8 9 -13 4 -4 -4 0 -15 9 -25 13 -13 21 -14 35
-6 25 16 22 57 -5 69 -28 12 -30 25 -3 25 11 0 20 5 20 10 0 6 -11 10 -25 10
-14 0 -25 -6 -25 -12z"/>
<path d="M14157 3914 c-14 -15 -6 -25 14 -19 18 6 20 4 14 -14 -4 -12 -2 -21
4 -21 6 0 11 -9 11 -20 0 -11 -7 -20 -15 -20 -8 0 -15 5 -15 10 0 6 -4 10 -10
10 -19 0 -10 -29 10 -35 28 -9 53 13 45 39 -3 12 -7 32 -8 46 -2 25 -34 40
-50 24z"/>
<path d="M14244 3906 c-8 -22 3 -49 19 -43 6 2 12 14 12 27 0 27 -22 39 -31
16z m26 -16 c0 -11 -4 -20 -10 -20 -5 0 -10 9 -10 20 0 11 5 20 10 20 6 0 10
-9 10 -20z"/>
<path d="M14297 3864 c-37 -74 -33 -83 4 -10 17 32 29 60 27 62 -2 2 -16 -21
-31 -52z"/>
<path d="M14385 3845 c0 -63 2 -73 13 -58 6 9 12 35 12 58 0 23 -6 49 -12 58
-11 15 -13 5 -13 -58z"/>
<path d="M14317 3845 c-9 -22 3 -46 22 -43 10 2 16 13 16 28 0 28 -29 40 -38
15z m25 -27 c-9 -9 -12 -7 -12 12 0 19 3 21 12 12 9 -9 9 -15 0 -24z"/>
<path d="M13410 3840 c0 -5 9 -10 20 -10 11 0 20 5 20 10 0 6 -9 10 -20 10
-11 0 -20 -4 -20 -10z"/>
<path d="M13870 3840 c0 -5 9 -10 20 -10 11 0 20 5 20 10 0 6 -9 10 -20 10
-11 0 -20 -4 -20 -10z"/>
<path d="M5770 3810 c0 -5 5 -10 10 -10 6 0 10 5 10 10 0 6 -4 10 -10 10 -5 0
-10 -4 -10 -10z"/>
<path d="M7340 3810 c0 -5 5 -10 10 -10 6 0 10 5 10 10 0 6 -4 10 -10 10 -5 0
-10 -4 -10 -10z"/>
<path d="M12230 3810 c0 -5 5 -10 10 -10 6 0 10 5 10 10 0 6 -4 10 -10 10 -5
0 -10 -4 -10 -10z"/>
<path d="M14020 3810 c0 -5 5 -10 10 -10 6 0 10 5 10 10 0 6 -4 10 -10 10 -5
0 -10 -4 -10 -10z"/>
<path d="M4410 3524 c-8 -8 -13 -28 -13 -44 0 -16 5 -36 13 -44 15 -20 54 -21
69 -3 15 19 3 28 -19 15 -14 -9 -22 -9 -34 1 -34 29 -3 87 34 63 22 -13 34 -4
19 15 -15 18 -54 17 -69 -3z"/>
<path d="M4527 3522 c-31 -34 -12 -102 28 -102 24 0 45 12 45 26 0 11 -4 12
-19 3 -30 -20 -53 -4 -49 33 2 25 8 34 26 36 13 2 22 -2 22 -9 0 -10 3 -10 12
-1 10 10 10 15 -2 22 -23 15 -45 12 -63 -8z"/>
<path d="M4644 3525 c-9 -22 3 -46 26 -52 11 -3 20 -12 20 -19 0 -16 -26 -19
-35 -4 -12 20 -26 10 -15 -11 17 -31 64 -22 68 13 3 22 -2 30 -22 38 -14 5
-26 14 -26 20 0 13 13 13 28 -2 17 -17 28 -2 12 17 -16 19 -49 19 -56 0z"/>
<path d="M5600 3521 c0 -11 -3 -27 -6 -36 -5 -13 -2 -15 20 -9 22 5 26 3 26
-15 0 -23 -25 -29 -33 -8 -2 6 -8 9 -13 4 -4 -4 0 -15 9 -25 23 -22 51 -6 55
32 3 21 -2 29 -17 33 -27 7 -27 23 -1 23 11 0 20 5 20 10 0 6 -13 10 -30 10
-23 0 -30 -5 -30 -19z"/>
<path d="M5692 3531 c-8 -5 -12 -21 -10 -37 2 -21 9 -30 26 -32 12 -2 22 -8
22 -14 0 -6 -10 -8 -26 -4 -19 5 -25 3 -22 -6 6 -18 36 -22 53 -8 8 7 15 29
15 49 0 51 -25 74 -58 52z m38 -31 c0 -11 -7 -20 -15 -20 -8 0 -15 9 -15 20 0
11 7 20 15 20 8 0 15 -9 15 -20z"/>
<path d="M5837 3522 c-21 -23 -22 -33 -2 -26 12 5 15 -3 15 -35 0 -23 5 -41
10 -41 6 0 10 27 10 60 0 63 -7 71 -33 42z"/>
<path d="M5910 3525 c-17 -20 -9 -48 18 -60 31 -14 28 -29 -5 -20 -27 6 -27 6
-10 -12 25 -25 51 -6 55 41 5 56 -29 86 -58 51z m40 -25 c0 -11 -7 -20 -15
-20 -8 0 -15 9 -15 20 0 11 7 20 15 20 8 0 15 -9 15 -20z"/>
<path d="M7120 3521 c0 -11 -3 -27 -6 -36 -5 -13 -2 -15 20 -9 22 5 26 3 26
-15 0 -23 -25 -29 -33 -8 -2 6 -8 9 -13 4 -4 -4 0 -15 9 -25 23 -22 51 -6 55
32 3 21 -2 29 -17 33 -27 7 -27 23 -1 23 11 0 20 5 20 10 0 6 -13 10 -30 10
-23 0 -30 -5 -30 -19z"/>
<path d="M7200 3530 c0 -5 11 -10 25 -10 24 0 25 -1 11 -22 -19 -31 -29 -78
-16 -78 5 0 10 6 10 13 0 7 9 30 20 52 27 52 26 55 -15 55 -19 0 -35 -4 -35
-10z"/>
<path d="M7353 3500 c-28 -48 -29 -60 -4 -60 11 0 21 -6 23 -12 3 -9 10 -7 24
6 13 14 15 21 6 24 -7 2 -12 21 -12 43 0 21 -3 39 -7 39 -5 0 -18 -18 -30 -40z
m13 -37 c-10 -10 -19 5 -10 18 6 11 8 11 12 0 2 -7 1 -15 -2 -18z"/>
<path d="M7437 3534 c-14 -14 -7 -25 13 -19 22 7 28 -10 8 -19 -10 -5 -10 -7
0 -12 13 -6 17 -44 4 -44 -4 0 -13 5 -20 12 -17 17 -27 2 -12 -17 7 -9 23 -15
34 -13 18 3 21 10 21 58 0 48 -3 55 -20 58 -12 2 -24 0 -28 -4z"/>
<path d="M8767 3533 c-26 -47 -10 -116 25 -111 46 6 45 118 -1 118 -11 0 -22
-3 -24 -7z m38 -53 c0 -18 -5 -35 -12 -37 -15 -5 -26 31 -18 58 10 31 30 17
30 -21z"/>
<path d="M10450 3520 c-12 -22 -1 -27 18 -8 8 8 15 9 22 2 7 -7 1 -23 -20 -49
-16 -21 -30 -39 -30 -41 0 -2 18 -4 40 -4 22 0 40 5 40 10 0 6 -9 10 -20 10
-11 0 -20 5 -20 10 0 6 4 10 8 10 5 0 14 12 21 26 9 20 9 30 0 40 -17 20 -47
17 -59 -6z"/>
<path d="M12151 3521 c-24 -45 -3 -107 35 -99 16 3 19 12 19 58 0 49 -2 55
-22 58 -14 2 -26 -4 -32 -17z m42 -21 c7 -27 -3 -62 -17 -57 -6 2 -12 14 -14
26 -7 45 20 72 31 31z"/>
<path d="M12287 3533 c-26 -47 -10 -116 25 -111 46 6 45 118 -1 118 -11 0 -22
-3 -24 -7z m38 -53 c0 -38 -20 -52 -30 -21 -8 27 3 63 18 58 7 -2 12 -19 12
-37z"/>
<path d="M13470 3521 c-14 -28 -13 -64 4 -87 22 -28 50 -7 54 40 5 58 -35 90
-58 47z m43 -21 c7 -27 -3 -62 -17 -57 -6 2 -12 14 -14 26 -7 45 20 72 31 31z"/>
<path d="M13606 3518 c-10 -38 -7 -46 13 -41 23 6 38 -14 22 -30 -8 -8 -14 -8
-23 1 -19 19 -30 14 -18 -8 6 -11 19 -20 30 -20 27 0 44 34 30 60 -6 11 -17
20 -25 20 -8 0 -15 5 -15 10 0 6 9 10 20 10 11 0 20 5 20 10 0 6 -11 10 -24
10 -16 0 -26 -7 -30 -22z"/>
<path d="M13707 3522 c-21 -23 -22 -33 -2 -26 12 5 15 -3 15 -35 0 -23 5 -41
10 -41 6 0 10 27 10 60 0 63 -7 71 -33 42z"/>
<path d="M13830 3521 c-14 -27 -13 -94 3 -114 10 -15 12 -5 12 58 0 41 -1 75
-2 75 -1 0 -7 -9 -13 -19z"/>
<path d="M13937 3533 c-26 -47 -10 -116 26 -111 20 3 22 9 22 58 0 49 -2 55
-22 58 -11 2 -23 0 -26 -5z m38 -54 c0 -24 -5 -34 -15 -34 -16 0 -25 37 -16
62 10 26 31 8 31 -28z"/>
<path d="M14065 3528 c-2 -7 -3 -33 -2 -58 2 -37 6 -46 23 -48 30 -4 51 24 36
48 -7 12 -8 21 -2 25 16 10 -8 45 -31 45 -11 0 -21 -6 -24 -12z m43 -20 c-6
-18 -28 -21 -28 -4 0 9 7 16 16 16 9 0 14 -5 12 -12z m2 -53 c0 -8 -7 -15 -15
-15 -8 0 -15 7 -15 15 0 8 7 15 15 15 8 0 15 -7 15 -15z"/>
<path d="M14162 3528 c-17 -17 -15 -83 4 -99 31 -26 70 25 43 57 -7 9 -20 13
-30 11 -12 -3 -16 0 -12 10 3 9 14 13 25 10 12 -4 18 -1 15 6 -5 17 -30 20
-45 5z m38 -68 c0 -11 -7 -20 -15 -20 -8 0 -15 9 -15 20 0 11 7 20 15 20 8 0
15 -9 15 -20z"/>
<path d="M14244 3526 c-8 -22 3 -49 19 -43 6 2 12 14 12 27 0 27 -22 39 -31
16z m26 -16 c0 -11 -4 -20 -10 -20 -5 0 -10 9 -10 20 0 11 5 20 10 20 6 0 10
-9 10 -20z"/>
<path d="M14297 3484 c-37 -74 -33 -83 4 -10 17 32 29 60 27 62 -2 2 -16 -21
-31 -52z"/>
<path d="M14385 3465 c0 -63 2 -73 13 -58 6 9 12 35 12 58 0 23 -6 49 -12 58
-11 15 -13 5 -13 -58z"/>
<path d="M14317 3465 c-9 -22 3 -46 22 -43 10 2 16 13 16 28 0 28 -29 40 -38
15z m25 -27 c-9 -9 -12 -7 -12 12 0 19 3 21 12 12 9 -9 9 -15 0 -24z"/>
<path d="M13410 3460 c0 -5 9 -10 20 -10 11 0 20 5 20 10 0 6 -9 10 -20 10
-11 0 -20 -4 -20 -10z"/>
<path d="M13870 3460 c0 -5 9 -10 20 -10 11 0 20 5 20 10 0 6 -9 10 -20 10
-11 0 -20 -4 -20 -10z"/>
<path d="M5770 3430 c0 -5 5 -10 10 -10 6 0 10 5 10 10 0 6 -4 10 -10 10 -5 0
-10 -4 -10 -10z"/>
<path d="M7290 3430 c0 -5 5 -10 10 -10 6 0 10 5 10 10 0 6 -4 10 -10 10 -5 0
-10 -4 -10 -10z"/>
<path d="M12230 3430 c0 -5 5 -10 10 -10 6 0 10 5 10 10 0 6 -4 10 -10 10 -5
0 -10 -4 -10 -10z"/>
<path d="M14020 3430 c0 -5 5 -10 10 -10 6 0 10 5 10 10 0 6 -4 10 -10 10 -5
0 -10 -4 -10 -10z"/>
<path d="M4436 3138 c-9 -12 -16 -29 -16 -38 0 -46 62 -79 89 -47 15 19 3 28
-19 15 -14 -9 -22 -9 -34 1 -34 29 -3 87 34 63 22 -13 34 -4 19 15 -17 20 -56
16 -73 -9z"/>
<path d="M4540 3100 c0 -33 4 -60 10 -60 6 0 10 27 10 60 0 33 -4 60 -10 60
-6 0 -10 -27 -10 -60z"/>
<path d="M4596 3104 c-17 -55 -14 -86 5 -51 12 21 59 23 59 2 0 -8 6 -15 14
-15 12 0 10 11 -7 60 -28 78 -47 79 -71 4z m47 6 c3 -13 0 -20 -9 -20 -8 0
-14 9 -14 20 0 11 4 20 9 20 5 0 11 -9 14 -20z"/>
<path d="M5692 3148 c-7 -7 -12 -29 -12 -49 0 -73 62 -78 68 -5 5 54 -26 84
-56 54z m36 -51 c2 -28 -1 -37 -12 -37 -12 0 -16 11 -16 41 0 52 24 48 28 -4z"/>
<path d="M5821 3141 c-24 -45 -3 -107 35 -99 16 3 19 12 19 58 0 49 -2 55 -22
58 -14 2 -26 -4 -32 -17z m39 -42 c0 -28 -4 -39 -12 -37 -24 8 -22 78 2 78 5
0 10 -18 10 -41z"/>
<path d="M7212 3148 c-7 -7 -12 -29 -12 -49 0 -73 62 -78 68 -5 5 54 -26 84
-56 54z m36 -51 c2 -28 -1 -37 -12 -37 -12 0 -16 11 -16 41 0 52 24 48 28 -4z"/>
<path d="M7341 3141 c-24 -45 -3 -107 35 -99 16 3 19 12 19 58 0 49 -2 55 -22
58 -14 2 -26 -4 -32 -17z m39 -42 c0 -28 -4 -39 -12 -37 -24 8 -22 78 2 78 5
0 10 -18 10 -41z"/>
<path d="M8760 3141 c-23 -44 -1 -107 35 -100 25 5 40 56 26 92 -12 32 -45 36
-61 8z m43 -21 c6 -24 -2 -60 -13 -60 -13 0 -22 38 -15 60 3 11 10 20 15 20 4
0 10 -9 13 -20z"/>
<path d="M10467 3142 c-21 -23 -22 -33 -2 -26 12 5 15 -3 15 -35 0 -23 5 -41
10 -41 6 0 10 27 10 60 0 63 -7 71 -33 42z"/>
<path d="M12222 3148 c-7 -7 -12 -29 -12 -49 0 -73 62 -78 68 -5 5 54 -26 84
-56 54z m36 -51 c2 -28 -1 -37 -12 -37 -12 0 -16 11 -16 41 0 52 24 48 28 -4z"/>
<path d="M13810 3100 c0 -33 4 -60 10 -60 6 0 10 17 10 38 l0 37 22 -37 c33
-57 48 -49 48 22 0 66 -17 83 -22 23 l-3 -38 -24 38 c-12 20 -27 37 -32 37 -5
0 -9 -27 -9 -60z"/>
<path d="M13932 3101 c-17 -50 -18 -61 -6 -61 8 0 14 7 14 15 0 21 40 19 56
-2 22 -31 25 -8 6 48 -26 75 -45 75 -70 0z m48 -3 c0 -5 -7 -8 -15 -8 -17 0
-18 2 -9 25 5 13 8 14 15 3 5 -7 9 -16 9 -20z"/>
<path d="M5770 3050 c0 -5 5 -10 10 -10 6 0 10 5 10 10 0 6 -4 10 -10 10 -5 0
-10 -4 -10 -10z"/>
<path d="M7290 3050 c0 -5 5 -10 10 -10 6 0 10 5 10 10 0 6 -4 10 -10 10 -5 0
-10 -4 -10 -10z"/>
<path d="M4397 2762 c-31 -34 -12 -102 28 -102 24 0 45 12 45 26 0 11 -4 12
-19 3 -30 -20 -53 -4 -49 33 2 25 8 34 26 36 13 2 22 -2 22 -9 0 -10 3 -10 12
-1 10 10 10 15 -2 22 -23 15 -45 12 -63 -8z"/>
<path d="M4516 2764 c-32 -31 -11 -104 30 -104 36 0 54 20 54 60 0 29 -5 42
-19 50 -27 14 -47 13 -65 -6z m64 -24 c15 -28 -4 -62 -33 -58 -22 3 -34 35
-23 64 8 21 44 17 56 -6z"/>
<path d="M4637 2762 c-23 -25 -22 -65 2 -86 26 -24 62 -17 81 17 13 24 13 30
0 55 -19 33 -59 41 -83 14z m67 -24 c15 -25 -4 -53 -35 -53 -25 0 -37 30 -25
61 8 20 46 14 60 -8z"/>
<path d="M5692 2768 c-7 -7 -12 -29 -12 -49 0 -73 62 -78 68 -5 5 54 -26 84
-56 54z m38 -48 c0 -29 -4 -40 -15 -40 -11 0 -15 11 -15 40 0 29 4 40 15 40
11 0 15 -11 15 -40z"/>
<path d="M5821 2761 c-24 -45 -3 -107 35 -99 16 3 19 12 19 58 0 49 -2 55 -22
58 -14 2 -26 -4 -32 -17z m42 -21 c7 -27 -3 -62 -17 -57 -6 2 -12 14 -14 26
-7 45 20 72 31 31z"/>
<path d="M7212 2768 c-7 -7 -12 -29 -12 -49 0 -73 62 -78 68 -5 5 54 -26 84
-56 54z m38 -48 c0 -29 -4 -40 -15 -40 -11 0 -15 11 -15 40 0 29 4 40 15 40
11 0 15 -11 15 -40z"/>
<path d="M7341 2761 c-24 -45 -3 -107 35 -99 16 3 19 12 19 58 0 49 -2 55 -22
58 -14 2 -26 -4 -32 -17z m42 -21 c7 -27 -3 -62 -17 -57 -6 2 -12 14 -14 26
-7 45 20 72 31 31z"/>
<path d="M8777 2762 c-21 -23 -22 -33 -2 -26 12 5 15 -3 15 -35 0 -23 5 -41
10 -41 6 0 10 27 10 60 0 63 -7 71 -33 42z"/>
<path d="M10457 2773 c-26 -47 -10 -116 25 -111 46 6 45 118 -1 118 -11 0 -22
-3 -24 -7z m38 -53 c0 -18 -5 -35 -12 -37 -15 -5 -26 31 -18 58 10 31 30 17
30 -21z"/>
<path d="M12222 2768 c-7 -7 -12 -29 -12 -49 0 -73 62 -78 68 -5 5 54 -26 84
-56 54z m38 -48 c0 -29 -4 -40 -15 -40 -11 0 -15 11 -15 40 0 29 4 40 15 40
11 0 15 -11 15 -40z"/>
<path d="M13810 2720 c0 -33 4 -60 10 -60 6 0 10 17 10 38 l1 37 22 -37 c33
-56 47 -49 47 22 0 66 -17 83 -22 23 l-3 -38 -24 38 c-12 20 -27 37 -32 37 -5
0 -9 -27 -9 -60z"/>
<path d="M13932 2721 c-17 -50 -18 -61 -6 -61 8 0 14 7 14 15 0 21 47 19 59
-2 19 -35 21 -5 3 48 -26 75 -45 75 -70 0z m48 2 c0 -7 -7 -13 -16 -13 -11 0
-14 5 -10 16 3 9 6 21 6 27 0 16 20 -14 20 -30z"/>
<path d="M5770 2670 c0 -5 5 -10 10 -10 6 0 10 5 10 10 0 6 -4 10 -10 10 -5 0
-10 -4 -10 -10z"/>
<path d="M7290 2670 c0 -5 5 -10 10 -10 6 0 10 5 10 10 0 6 -4 10 -10 10 -5 0
-10 -4 -10 -10z"/>
<path d="M4400 2340 l0 -61 37 3 c29 2 41 9 53 31 13 24 13 30 0 55 -12 21
-24 28 -53 30 l-37 3 0 -61z m70 25 c20 -24 4 -65 -25 -65 -22 0 -25 4 -25 40
0 32 4 40 19 40 10 0 24 -7 31 -15z"/>
<path d="M4526 2378 c-9 -12 -16 -29 -16 -38 0 -46 62 -79 89 -47 15 19 3 28
-19 15 -14 -9 -22 -9 -34 1 -34 29 -3 87 34 63 22 -13 34 -4 19 15 -17 20 -56
16 -73 -9z"/>
<path d="M4630 2340 c0 -33 4 -60 10 -60 6 0 10 11 10 25 0 20 5 25 25 25 14
0 25 5 25 10 0 6 -11 10 -25 10 -16 0 -25 6 -25 15 0 10 10 15 30 15 17 0 30
5 30 10 0 6 -18 10 -40 10 l-40 0 0 -60z"/>
<path d="M5692 2388 c-7 -7 -12 -29 -12 -49 0 -73 62 -78 68 -5 5 54 -26 84
-56 54z m36 -51 c2 -28 -1 -37 -12 -37 -12 0 -16 11 -16 41 0 52 24 48 28 -4z"/>
<path d="M5821 2381 c-24 -45 -3 -107 35 -99 16 3 19 12 19 58 0 49 -2 55 -22
58 -14 2 -26 -4 -32 -17z m39 -42 c0 -28 -4 -39 -12 -37 -24 8 -22 78 2 78 5
0 10 -18 10 -41z"/>
<path d="M7212 2388 c-7 -7 -12 -29 -12 -49 0 -73 62 -78 68 -5 5 54 -26 84
-56 54z m36 -51 c2 -28 -1 -37 -12 -37 -12 0 -16 11 -16 41 0 52 24 48 28 -4z"/>
<path d="M7341 2381 c-24 -45 -3 -107 35 -99 16 3 19 12 19 58 0 49 -2 55 -22
58 -14 2 -26 -4 -32 -17z m39 -42 c0 -28 -4 -39 -12 -37 -24 8 -22 78 2 78 5
0 10 -18 10 -41z"/>
<path d="M8760 2381 c-23 -44 -1 -107 35 -100 25 5 40 56 26 92 -12 32 -45 36
-61 8z m43 -21 c6 -24 -2 -60 -13 -60 -13 0 -22 38 -15 60 3 11 10 20 15 20 4
0 10 -9 13 -20z"/>
<path d="M10450 2380 c-12 -22 -1 -27 18 -8 9 9 15 9 23 1 7 -7 2 -21 -20 -46
-17 -19 -31 -37 -31 -41 0 -3 18 -6 40 -6 22 0 40 5 40 10 0 6 -9 10 -20 10
-11 0 -20 5 -20 10 0 6 4 10 8 10 5 0 14 12 21 26 9 20 9 30 0 40 -17 20 -47
17 -59 -6z"/>
<path d="M12151 2381 c-24 -45 -3 -107 35 -99 16 3 19 12 19 58 0 49 -2 55
-22 58 -14 2 -26 -4 -32 -17z m39 -42 c0 -28 -4 -39 -12 -37 -24 8 -22 78 2
78 5 0 10 -18 10 -41z"/>
<path d="M12280 2381 c-23 -44 -1 -107 35 -100 25 5 40 56 26 92 -12 32 -45
36 -61 8z m43 -21 c6 -24 -2 -60 -13 -60 -5 0 -12 9 -15 20 -7 22 2 60 15 60
4 0 10 -9 13 -20z"/>
<path d="M13810 2340 c0 -33 4 -60 10 -60 6 0 10 17 10 38 l0 37 22 -37 c33
-57 48 -49 48 22 0 66 -17 83 -22 23 l-3 -38 -24 38 c-12 20 -27 37 -32 37 -5
0 -9 -27 -9 -60z"/>
<path d="M13932 2341 c-17 -50 -18 -61 -6 -61 8 0 14 7 14 15 0 21 40 19 56
-2 22 -31 25 -8 6 48 -26 75 -45 75 -70 0z m48 -3 c0 -5 -7 -8 -15 -8 -17 0
-18 2 -9 25 5 13 8 14 15 3 5 -7 9 -16 9 -20z"/>
<path d="M5770 2290 c0 -5 5 -10 10 -10 6 0 10 5 10 10 0 6 -4 10 -10 10 -5 0
-10 -4 -10 -10z"/>
<path d="M7290 2290 c0 -5 5 -10 10 -10 6 0 10 5 10 10 0 6 -4 10 -10 10 -5 0
-10 -4 -10 -10z"/>
<path d="M12230 2290 c0 -5 5 -10 10 -10 6 0 10 5 10 10 0 6 -4 10 -10 10 -5
0 -10 -4 -10 -10z"/>
<path d="M4390 1960 l0 -60 45 0 c25 0 45 5 45 10 0 6 -16 10 -35 10 -24 0
-35 5 -35 15 0 10 10 15 30 15 17 0 30 5 30 10 0 6 -13 10 -30 10 -20 0 -30 5
-30 15 0 10 11 15 35 15 19 0 35 5 35 10 0 6 -20 10 -45 10 l-45 0 0 -60z"/>
<path d="M4516 2004 c-36 -35 -10 -104 39 -104 13 0 31 -3 41 -7 13 -5 15 -3
9 7 -5 8 -8 33 -6 56 2 34 -2 45 -18 53 -27 15 -47 14 -65 -5z m64 -23 c13
-24 2 -54 -17 -47 -8 4 -11 1 -7 -5 4 -7 -1 -10 -12 -7 -19 3 -30 38 -20 64 8
20 44 17 56 -5z"/>
<path d="M4637 2002 c-31 -34 -12 -102 28 -102 24 0 45 12 45 26 0 11 -4 12
-19 3 -30 -20 -53 -4 -49 33 2 25 8 34 26 36 13 2 22 -2 22 -9 0 -10 3 -10 12
-1 10 10 10 15 -2 22 -23 15 -45 12 -63 -8z"/>
<path d="M5600 2005 c-7 -8 -9 -19 -5 -23 4 -4 10 -1 12 6 6 15 33 16 33 1 0
-6 -11 -24 -25 -41 -33 -39 -32 -48 10 -48 19 0 35 5 35 10 0 6 -10 10 -22 10
l-21 0 22 24 c28 30 25 70 -5 74 -11 2 -27 -4 -34 -13z"/>
<path d="M5692 2008 c-17 -17 -15 -83 4 -99 31 -26 70 25 43 57 -7 8 -18 13
-26 10 -7 -3 -13 1 -13 10 0 12 6 15 25 10 19 -5 23 -3 19 9 -7 18 -35 20 -52
3z m38 -68 c0 -11 -7 -20 -15 -20 -8 0 -15 9 -15 20 0 11 7 20 15 20 8 0 15
-9 15 -20z"/>
<path d="M5826 2012 c-3 -6 -6 -21 -5 -33 0 -13 -1 -32 -3 -43 -4 -22 23 -42
45 -33 12 4 15 19 14 59 -2 46 -5 53 -24 56 -11 2 -24 -1 -27 -6z m34 -27 c0
-8 -4 -15 -9 -15 -13 0 -22 16 -14 24 11 11 23 6 23 -9z m5 -44 c7 -12 -12
-24 -25 -16 -11 7 -4 25 10 25 5 0 11 -4 15 -9z"/>
<path d="M5900 2010 c0 -5 11 -10 25 -10 25 0 25 -1 10 -30 -17 -33 -20 -70
-5 -70 6 0 10 10 10 23 1 12 7 33 15 47 23 40 18 50 -20 50 -19 0 -35 -4 -35
-10z"/>
<path d="M7120 2005 c-7 -8 -9 -19 -5 -23 4 -4 10 -1 12 6 6 15 33 16 33 1 0
-6 -11 -24 -25 -41 -33 -39 -32 -48 10 -48 19 0 35 5 35 10 0 6 -10 10 -22 10
l-21 0 22 24 c28 30 25 70 -5 74 -11 2 -27 -4 -34 -13z"/>
<path d="M7212 2008 c-17 -17 -15 -83 4 -99 31 -26 70 25 43 57 -7 8 -18 13
-26 10 -7 -3 -13 1 -13 10 0 12 6 15 25 10 19 -5 23 -3 19 9 -7 18 -35 20 -52
3z m38 -68 c0 -11 -7 -20 -15 -20 -8 0 -15 9 -15 20 0 11 7 20 15 20 8 0 15
-9 15 -20z"/>
<path d="M7346 2012 c-3 -6 -6 -21 -5 -33 0 -13 -1 -32 -3 -43 -4 -22 23 -42
45 -33 12 4 15 19 14 59 -2 46 -5 53 -24 56 -11 2 -24 -1 -27 -6z m34 -27 c0
-8 -4 -15 -9 -15 -13 0 -22 16 -14 24 11 11 23 6 23 -9z m5 -44 c7 -12 -12
-24 -25 -16 -11 7 -4 25 10 25 5 0 11 -4 15 -9z"/>
<path d="M7436 2004 c-12 -32 -7 -52 13 -47 23 6 38 -14 22 -30 -8 -8 -14 -8
-23 1 -19 19 -30 14 -18 -8 6 -11 19 -20 30 -20 27 0 44 34 30 60 -6 11 -17
20 -25 20 -8 0 -15 5 -15 10 0 6 9 10 20 10 11 0 20 5 20 10 0 16 -47 11 -54
-6z"/>
<path d="M8767 2013 c-26 -47 -10 -116 25 -111 46 6 45 118 -1 118 -11 0 -22
-3 -24 -7z m38 -53 c0 -38 -20 -52 -30 -21 -8 27 3 63 18 58 7 -2 12 -19 12
-37z"/>
<path d="M10467 2002 c-21 -23 -22 -33 -2 -26 12 5 15 -3 15 -35 0 -23 5 -41
10 -41 6 0 10 27 10 60 0 63 -7 71 -33 42z"/>
<path d="M12222 2008 c-7 -7 -12 -29 -12 -49 0 -73 62 -78 68 -5 5 54 -26 84
-56 54z m38 -48 c0 -29 -4 -40 -15 -40 -11 0 -15 11 -15 40 0 29 4 40 15 40
11 0 15 -11 15 -40z"/>
<path d="M13482 2008 c-6 -6 -12 -29 -12 -49 0 -62 52 -80 66 -23 14 54 -23
103 -54 72z m36 -51 c2 -28 -1 -37 -12 -37 -12 0 -16 11 -16 41 0 52 24 48 28
-4z"/>
<path d="M13623 2001 c-26 -22 -30 -33 -8 -25 12 5 15 -3 15 -35 0 -23 5 -41
10 -41 6 0 10 27 10 60 0 33 -1 60 -2 60 -2 -1 -13 -9 -25 -19z"/>
<path d="M13703 2001 c-26 -22 -30 -33 -8 -25 12 5 15 -3 15 -35 0 -23 5 -41
10 -41 6 0 10 27 10 60 0 33 -1 60 -2 60 -2 -1 -13 -9 -25 -19z"/>
<path d="M13825 1999 c-14 -44 -4 -129 15 -129 5 0 4 16 -2 36 -6 24 -6 50 0
75 10 40 -1 55 -13 18z"/>
<path d="M13932 2008 c-6 -6 -12 -29 -12 -49 0 -62 52 -80 66 -23 14 54 -23
103 -54 72z m38 -48 c0 -29 -4 -40 -15 -40 -11 0 -15 11 -15 40 0 29 4 40 15
40 11 0 15 -11 15 -40z"/>
<path d="M14078 1983 c-34 -52 -35 -63 -3 -63 14 0 25 -5 25 -11 0 -6 7 -3 17
6 11 11 13 19 5 24 -6 3 -12 24 -14 46 l-3 40 -27 -42z m22 -23 c0 -11 -7 -20
-15 -20 -18 0 -19 12 -3 28 16 16 18 15 18 -8z"/>
<path d="M14167 2002 c-21 -23 -22 -33 -3 -26 11 4 16 -5 19 -38 3 -35 4 -31
5 20 1 34 0 62 -1 62 -2 0 -11 -8 -20 -18z"/>
<path d="M14234 2005 c-8 -21 2 -45 20 -45 17 0 28 24 20 45 -4 8 -13 15 -20
15 -8 0 -17 -7 -20 -15z m31 -25 c-5 -8 -11 -8 -17 -2 -6 6 -7 16 -3 22 5 8
11 8 17 2 6 -6 7 -16 3 -22z"/>
<path d="M14290 1960 c-17 -33 -28 -60 -25 -60 2 0 18 27 35 60 17 33 28 60
25 60 -2 0 -18 -27 -35 -60z"/>
<path d="M14385 1945 c0 -69 1 -73 12 -48 7 15 12 37 12 48 0 11 -5 33 -12 48
-11 25 -12 21 -12 -48z"/>
<path d="M14314 1946 c-8 -22 3 -49 19 -43 6 2 12 14 12 27 0 27 -22 39 -31
16z m26 -16 c0 -11 -4 -20 -10 -20 -5 0 -10 9 -10 20 0 11 5 20 10 20 6 0 10
-9 10 -20z"/>
<path d="M13410 1940 c0 -5 9 -10 20 -10 11 0 20 5 20 10 0 6 -9 10 -20 10
-11 0 -20 -4 -20 -10z"/>
<path d="M13870 1940 c0 -5 9 -10 20 -10 11 0 20 5 20 10 0 6 -9 10 -20 10
-11 0 -20 -4 -20 -10z"/>
<path d="M5770 1910 c0 -5 5 -10 10 -10 6 0 10 5 10 10 0 6 -4 10 -10 10 -5 0
-10 -4 -10 -10z"/>
<path d="M7290 1910 c0 -5 5 -10 10 -10 6 0 10 5 10 10 0 6 -4 10 -10 10 -5 0
-10 -4 -10 -10z"/>
<path d="M13560 1910 c0 -5 5 -10 10 -10 6 0 10 5 10 10 0 6 -4 10 -10 10 -5
0 -10 -4 -10 -10z"/>
<path d="M14010 1910 c0 -5 5 -10 10 -10 6 0 10 5 10 10 0 6 -4 10 -10 10 -5
0 -10 -4 -10 -10z"/>
<path d="M4400 1580 l0 -60 40 0 c22 0 40 5 40 10 0 6 -13 10 -30 10 -20 0
-30 5 -30 15 0 10 10 15 30 15 17 0 30 5 30 10 0 6 -13 10 -30 10 -20 0 -30 5
-30 15 0 10 10 15 30 15 17 0 30 5 30 10 0 6 -18 10 -40 10 l-40 0 0 -60z"/>
<path d="M4516 1624 c-36 -35 -10 -104 39 -104 13 0 29 -2 37 -5 18 -7 18 86
-1 108 -17 21 -55 22 -75 1z m64 -23 c13 -24 2 -54 -17 -47 -8 4 -11 1 -7 -5
4 -7 -1 -10 -12 -7 -19 3 -30 38 -20 64 8 20 44 17 56 -5z"/>
<path d="M4647 1633 c-16 -16 -6 -50 18 -61 26 -12 34 -32 12 -32 -7 0 -18 5
-25 12 -17 17 -27 2 -12 -17 8 -9 25 -15 39 -13 20 2 27 9 29 30 3 22 -2 30
-22 38 -14 5 -26 14 -26 20 0 13 13 13 28 -2 17 -17 28 -2 12 17 -13 15 -42
20 -53 8z"/>
<path d="M5640 1620 c-12 -22 -1 -27 18 -8 9 9 15 9 23 1 7 -7 2 -21 -20 -46
-17 -19 -31 -37 -31 -41 0 -3 18 -6 40 -6 22 0 40 5 40 10 0 6 -9 10 -20 10
-11 0 -20 5 -20 10 0 6 4 10 8 10 5 0 14 12 21 26 9 20 9 30 0 40 -17 20 -47
17 -59 -6z"/>
<path d="M5777 1634 c-14 -15 -6 -25 15 -19 17 6 20 4 14 -10 -3 -10 -1 -24 5
-32 9 -11 9 -17 0 -26 -9 -9 -14 -9 -21 3 -11 18 -25 6 -17 -15 8 -19 41 -20
56 -1 19 23 1 100 -25 104 -11 2 -23 0 -27 -4z"/>
<path d="M5866 1618 c-11 -42 -8 -49 19 -42 21 5 25 3 25 -15 0 -23 -25 -29
-33 -8 -2 6 -8 9 -12 5 -13 -12 3 -38 23 -38 45 0 55 55 14 76 -24 12 -19 24
10 24 10 0 18 5 18 10 0 6 -13 10 -29 10 -21 0 -30 -6 -35 -22z"/>
<path d="M7070 1620 c-12 -22 -1 -27 18 -8 9 9 15 9 23 1 7 -7 2 -21 -20 -46
-17 -19 -31 -37 -31 -41 0 -3 18 -6 40 -6 22 0 40 5 40 10 0 6 -9 10 -20 10
-11 0 -20 5 -20 10 0 6 4 10 8 10 5 0 14 12 21 26 9 20 9 30 0 40 -17 20 -47
17 -59 -6z"/>
<path d="M7218 1621 c-22 -22 -23 -32 -3 -25 12 5 15 -3 15 -35 0 -23 5 -41
10 -41 6 0 10 27 10 60 0 64 -5 69 -32 41z"/>
<path d="M7295 1628 c-2 -7 -3 -33 -2 -58 2 -47 23 -64 52 -40 14 11 15 76 2
98 -10 16 -46 16 -52 0z m37 -23 c0 -5 -5 -11 -11 -13 -6 -2 -11 4 -11 13 0 9
5 15 11 13 6 -2 11 -8 11 -13z m8 -50 c0 -8 -7 -15 -15 -15 -8 0 -15 7 -15 15
0 8 7 15 15 15 8 0 15 -7 15 -15z"/>
<path d="M7380 1621 c-14 -27 3 -61 31 -61 11 0 17 -5 14 -10 -4 -6 -16 -8
-27 -4 -15 4 -19 2 -16 -7 3 -8 15 -14 29 -14 30 0 47 42 33 83 -12 34 -48 42
-64 13z m45 -21 c0 -7 -6 -15 -12 -17 -8 -3 -13 4 -13 17 0 13 5 20 13 18 6
-3 12 -11 12 -18z"/>
<path d="M7474 1625 c-4 -9 -3 -19 1 -23 4 -4 10 -1 12 6 6 16 33 16 33 -1 0
-8 -9 -22 -21 -33 -11 -10 -25 -27 -30 -36 -9 -16 -5 -18 31 -18 22 0 40 5 40
10 0 6 -9 10 -20 10 -20 0 -20 1 2 30 17 24 20 35 12 48 -15 23 -52 28 -60 7z"/>
<path d="M8760 1621 c-23 -44 -1 -107 35 -100 25 5 40 56 26 92 -12 32 -45 36
-61 8z m43 -21 c6 -24 -2 -60 -13 -60 -13 0 -22 38 -15 60 3 11 10 20 15 20 4
0 10 -9 13 -20z"/>
<path d="M10450 1620 c-12 -22 -1 -27 18 -8 9 9 15 9 23 1 7 -7 2 -21 -20 -46
-17 -19 -31 -37 -31 -41 0 -3 18 -6 40 -6 22 0 40 5 40 10 0 6 -9 10 -20 10
-11 0 -20 5 -20 10 0 6 4 10 8 10 5 0 14 12 21 26 9 20 9 30 0 40 -17 20 -47
17 -59 -6z"/>
<path d="M12151 1621 c-24 -45 -3 -107 35 -99 16 3 19 12 19 58 0 49 -2 55
-22 58 -14 2 -26 -4 -32 -17z m39 -42 c0 -28 -4 -39 -12 -37 -24 8 -22 78 2
78 5 0 10 -18 10 -41z"/>
<path d="M12286 1624 c-3 -9 -6 -25 -6 -35 0 -16 5 -19 19 -14 23 7 38 -12 22
-28 -8 -8 -14 -8 -23 1 -19 19 -30 14 -18 -8 13 -23 42 -26 60 -5 17 20 9 48
-18 60 -27 12 -29 25 -2 25 11 0 20 5 20 10 0 16 -47 11 -54 -6z"/>
<path d="M5730 1530 c0 -5 5 -10 10 -10 6 0 10 5 10 10 0 6 -4 10 -10 10 -5 0
-10 -4 -10 -10z"/>
<path d="M7160 1530 c0 -5 5 -10 10 -10 6 0 10 5 10 10 0 6 -4 10 -10 10 -5 0
-10 -4 -10 -10z"/>
<path d="M12230 1530 c0 -5 5 -10 10 -10 6 0 10 5 10 10 0 6 -4 10 -10 10 -5
0 -10 -4 -10 -10z"/>
<path d="M14825 1230 c17 -19 19 -19 37 -4 24 23 24 24 -19 24 -36 0 -36 0
-18 -20z"/>
<path d="M2360 941 c0 -6 5 -13 10 -16 6 -3 10 1 10 9 0 9 -4 16 -10 16 -5 0
-10 -4 -10 -9z"/>
</g>
</svg>
